<svg width="165" height="60" viewBox="0 0 165 60" fill="none" xmlns="http://www.w3.org/2000/svg">
<rect x="2.5" y="2.5" width="160" height="55" rx="17.5" fill="white"/>
<rect x="2.5" y="2.5" width="160" height="55" rx="17.5" stroke="#F25D07" stroke-width="5"/>
<path d="M54 18V43M41.5 30.5H66.5" stroke="#F25D07" stroke-width="5" stroke-linecap="round" stroke-linejoin="round"/>
<path d="M84.0823 38.5L90.3823 21.825H94.8073L100.707 38.5H96.5573L91.2323 22.775L93.2073 22.6L87.9073 38.5H84.0823ZM87.6323 34.9L88.4573 31.925H96.0323L96.4073 34.9H87.6323ZM108.474 38.875C107.491 38.875 106.582 38.7667 105.749 38.55C104.932 38.3333 104.224 37.975 103.624 37.475C103.024 36.9583 102.549 36.2583 102.199 35.375C101.866 34.4917 101.699 33.3917 101.699 32.075C101.699 30.025 102.199 28.4083 103.199 27.225C104.216 26.0417 105.732 25.45 107.749 25.45C108.016 25.45 108.366 25.475 108.799 25.525C109.232 25.5583 109.682 25.6583 110.149 25.825C110.616 25.9917 111.032 26.275 111.399 26.675L110.649 27.825V20.65H114.349V35.2C114.349 35.8167 114.182 36.3583 113.849 36.825C113.516 37.275 113.066 37.65 112.499 37.95C111.949 38.25 111.324 38.475 110.624 38.625C109.924 38.7917 109.207 38.875 108.474 38.875ZM108.624 35.75C109.224 35.75 109.707 35.675 110.074 35.525C110.457 35.3583 110.649 35.1167 110.649 34.8V28.975C110.349 28.8083 110.024 28.6833 109.674 28.6C109.341 28.5 109.016 28.45 108.699 28.45C107.999 28.45 107.407 28.5667 106.924 28.8C106.441 29.0333 106.074 29.425 105.824 29.975C105.591 30.525 105.474 31.2667 105.474 32.2C105.474 32.9333 105.574 33.5667 105.774 34.1C105.974 34.6167 106.299 35.025 106.749 35.325C107.216 35.6083 107.841 35.75 108.624 35.75ZM123.708 38.875C122.725 38.875 121.817 38.7667 120.983 38.55C120.167 38.3333 119.458 37.975 118.858 37.475C118.258 36.9583 117.783 36.2583 117.433 35.375C117.1 34.4917 116.933 33.3917 116.933 32.075C116.933 30.025 117.433 28.4083 118.433 27.225C119.45 26.0417 120.967 25.45 122.983 25.45C123.25 25.45 123.6 25.475 124.033 25.525C124.467 25.5583 124.917 25.6583 125.383 25.825C125.85 25.9917 126.267 26.275 126.633 26.675L125.883 27.825V20.65H129.583V35.2C129.583 35.8167 129.417 36.3583 129.083 36.825C128.75 37.275 128.3 37.65 127.733 37.95C127.183 38.25 126.558 38.475 125.858 38.625C125.158 38.7917 124.442 38.875 123.708 38.875ZM123.858 35.75C124.458 35.75 124.942 35.675 125.308 35.525C125.692 35.3583 125.883 35.1167 125.883 34.8V28.975C125.583 28.8083 125.258 28.6833 124.908 28.6C124.575 28.5 124.25 28.45 123.933 28.45C123.233 28.45 122.642 28.5667 122.158 28.8C121.675 29.0333 121.308 29.425 121.058 29.975C120.825 30.525 120.708 31.2667 120.708 32.2C120.708 32.9333 120.808 33.5667 121.008 34.1C121.208 34.6167 121.533 35.025 121.983 35.325C122.45 35.6083 123.075 35.75 123.858 35.75Z" fill="#F25D07"/>
</svg>
