<svg width="41" height="40" viewBox="0 0 41 40" fill="none" xmlns="http://www.w3.org/2000/svg">
<g clip-path="url(#clip0_208_301)">
<path d="M15.1562 2.85157C14.3203 3.08594 13.5781 3.83594 13.3516 4.69532C13.1953 5.26563 13.1953 6.50001 13.3516 6.79688C13.5703 7.21876 14.1172 7.38282 14.5547 7.15626C14.9297 6.96094 14.9844 6.82813 15.0312 5.95313C15.0859 5.07032 15.1641 4.84376 15.4922 4.67188C15.7656 4.52344 25.2344 4.52344 25.5078 4.67188C25.8359 4.84376 25.9141 5.07032 25.9688 5.95313C26.0156 6.82813 26.0703 6.96094 26.4453 7.15626C26.8828 7.38282 27.4297 7.21876 27.6484 6.79688C27.8047 6.50001 27.8047 5.26563 27.6484 4.69532C27.4219 3.82032 26.6797 3.07813 25.8047 2.85157C25.2031 2.68751 15.7422 2.69532 15.1562 2.85157Z" fill="black"/>
<path d="M2.79688 9.14062C1.90625 9.27344 1.14063 9.85156 0.750003 10.6875L0.539065 11.1328L0.515628 14.5234C0.49219 17.7656 0.500003 17.9375 0.656253 18.4453C0.859378 19.1172 1.46094 19.8125 2.0625 20.0703C2.34375 20.1875 16.5547 23.4375 16.7969 23.4375C16.8047 23.4375 16.8281 24.1641 16.8438 25.0547C16.8672 26.8359 16.8906 26.9297 17.3438 27.1484C17.7109 27.3203 23.2891 27.3203 23.6563 27.1484C24.1094 26.9297 24.1328 26.8359 24.1563 25.0547C24.1719 24.1641 24.1953 23.4375 24.2031 23.4375C24.4453 23.4375 38.6562 20.1875 38.9375 20.0703C39.5391 19.8125 40.1406 19.1172 40.3438 18.4453C40.5 17.9375 40.5078 17.7656 40.4844 14.5234L40.4609 11.1328L40.25 10.6797C39.9688 10.0937 39.375 9.51562 38.8047 9.28125L38.3516 9.10156L20.7734 9.09375C11.1094 9.08594 3.01563 9.10937 2.79688 9.14062ZM38.3203 11.0937C38.4453 11.1875 38.5781 11.375 38.625 11.5469C38.7422 11.9687 38.7188 17.6172 38.6016 17.9609C38.5469 18.1094 38.4219 18.2891 38.3125 18.3672C38.1875 18.4609 35.75 19.0391 31.1641 20.0625L24.2109 21.6172L24.1563 21.1484C24.0781 20.5 23.9688 20.2656 23.6641 20.125C23.2813 19.9375 17.7188 19.9375 17.3359 20.125C17.0313 20.2656 16.9219 20.5 16.8438 21.1484L16.7891 21.6172L9.83594 20.0625C5.25 19.0391 2.8125 18.4609 2.6875 18.3672C2.57813 18.2891 2.45313 18.1094 2.39844 17.9609C2.28125 17.625 2.25782 11.9687 2.375 11.5625C2.41407 11.4141 2.54688 11.2109 2.66407 11.1172L2.88282 10.9375H20.4844C38.0938 10.9375 38.0938 10.9375 38.3203 11.0937ZM22.2969 23.6328V25.4687H20.5H18.7031V23.6328V21.7969H20.5H22.2969V23.6328Z" fill="black"/>
<path d="M2.00783 21.8828C1.87501 21.9219 1.68751 22.0547 1.59376 22.1797C1.43751 22.4062 1.43751 22.4375 1.45314 28.8438L1.47658 35.2734L1.6797 35.7109C1.94533 36.2734 2.4297 36.7578 2.9922 37.0234L3.4297 37.2266H20.5H37.5703L38.0078 37.0234C38.5703 36.7578 39.0547 36.2734 39.3203 35.7109L39.5235 35.2734L39.5469 28.8438C39.5625 22.4531 39.5625 22.4062 39.4063 22.1875C39.2266 21.9297 38.8047 21.7812 38.461 21.8516C38.1641 21.9062 37.875 22.2031 37.8125 22.5078C37.7891 22.6484 37.7656 25.4688 37.7656 28.7812C37.7656 34.6094 37.7578 34.8125 37.6094 35.0547C37.5078 35.2188 37.3672 35.3281 37.1641 35.3828C36.75 35.5 4.25001 35.5 3.83595 35.3828C3.2422 35.2188 3.28126 35.6406 3.23439 28.6328C3.19533 22.0391 3.20314 22.1953 2.85158 21.9766C2.64064 21.8438 2.27345 21.8047 2.00783 21.8828Z" fill="black"/>
</g>
<defs>
<clipPath id="clip0_208_301">
<rect width="40" height="40" fill="white" transform="translate(0.5)"/>
</clipPath>
</defs>
</svg>
