<svg width="41" height="40" viewBox="0 0 41 40" fill="none" xmlns="http://www.w3.org/2000/svg">
<g clip-path="url(#clip0_208_286)">
<path d="M3.39457 16.6291C3.45006 16.6288 3.50555 16.6286 3.56272 16.6283C3.74869 16.6274 3.93465 16.6271 4.12061 16.6268C4.25396 16.6263 4.38731 16.6258 4.52066 16.6252C4.95869 16.6236 5.39673 16.6228 5.83477 16.622C5.98575 16.6217 6.13674 16.6214 6.28772 16.621C6.99732 16.6196 7.70691 16.6184 8.4165 16.6178C9.23453 16.617 10.0525 16.615 10.8706 16.6118C11.5035 16.6095 12.1364 16.6083 12.7693 16.608C13.147 16.6079 13.5246 16.6072 13.9023 16.6052C14.258 16.6034 14.6137 16.603 14.9694 16.6038C15.0995 16.6039 15.2295 16.6034 15.3595 16.6023C16.3299 16.5947 17.1462 16.6941 17.9164 17.3401C18.5467 17.9633 18.8822 18.6739 18.8911 19.5598C18.8906 19.6298 18.8901 19.6999 18.8897 19.772C18.8903 19.8864 18.8903 19.8864 18.8909 20.003C18.892 20.2569 18.8915 20.5107 18.8909 20.7646C18.8914 20.9472 18.8919 21.1299 18.8926 21.3126C18.894 21.8076 18.8939 22.3027 18.8934 22.7978C18.8931 23.2639 18.8938 23.73 18.8943 24.1961C18.8954 25.1758 18.895 26.1554 18.8941 27.135C18.8933 28.0299 18.8943 28.9247 18.8962 29.8195C18.8981 30.7399 18.8988 31.6603 18.8983 32.5806C18.898 33.0967 18.8982 33.6128 18.8996 34.1289C18.9008 34.6144 18.9005 35.0998 18.899 35.5852C18.8987 35.763 18.899 35.9407 18.8998 36.1185C18.905 37.3574 18.8613 38.3464 17.9484 39.2722C17.3764 39.7947 16.8055 40.0089 16.037 40.0115C15.9808 40.0118 15.9247 40.0121 15.8669 40.0124C15.6788 40.0132 15.4906 40.0135 15.3025 40.0138C15.1676 40.0143 15.0327 40.0148 14.8979 40.0154C14.4547 40.017 14.0116 40.0178 13.5685 40.0186C13.4158 40.0189 13.2631 40.0193 13.1103 40.0196C12.3926 40.0211 11.6748 40.0222 10.957 40.0228C10.1296 40.0236 9.30209 40.0256 8.47461 40.0288C7.8344 40.0312 7.19419 40.0323 6.55398 40.0326C6.17193 40.0328 5.78989 40.0335 5.40784 40.0354C5.04803 40.0373 4.68824 40.0376 4.32843 40.0368C4.19689 40.0367 4.06534 40.0372 3.93381 40.0383C3.00672 40.0455 2.17269 39.9703 1.42559 39.3613C0.800797 38.7444 0.476951 38.0293 0.468277 37.1545C0.468747 37.0838 0.469216 37.0131 0.4697 36.9403C0.469069 36.8249 0.469069 36.8249 0.468425 36.7072C0.467313 36.451 0.467864 36.1948 0.468421 35.9386C0.467975 35.7543 0.467431 35.5699 0.466796 35.3856C0.465396 34.886 0.465486 34.3864 0.465932 33.8869C0.466113 33.5746 0.46594 33.2623 0.465582 32.95C0.465524 32.898 0.465466 32.8461 0.465405 32.7926C0.465286 32.6871 0.465166 32.5815 0.465045 32.476C0.463974 31.4877 0.464397 30.4995 0.465294 29.5112C0.46607 28.6082 0.465059 27.7053 0.46319 26.8023C0.461282 25.8737 0.460534 24.9451 0.461053 24.0165C0.461325 23.4958 0.461128 22.975 0.459783 22.4543C0.458574 21.9645 0.458885 21.4748 0.460354 20.9851C0.460642 20.8056 0.4604 20.6262 0.459582 20.4467C0.458548 20.2012 0.459453 19.9558 0.460831 19.7103C0.459705 19.6045 0.459705 19.6045 0.458557 19.4966C0.468317 18.6475 0.826927 17.9718 1.40819 17.3682C1.97851 16.8401 2.62975 16.6317 3.39457 16.6291ZM3.08697 19.373C2.96909 19.6934 2.96756 19.9762 2.97023 20.3151C2.96986 20.3863 2.96949 20.4575 2.96912 20.5309C2.96818 20.7695 2.96892 21.0081 2.96966 21.2468C2.96934 21.4179 2.96893 21.5889 2.96842 21.76C2.96735 22.2247 2.96776 22.6894 2.96851 23.1541C2.9691 23.6401 2.96855 24.1261 2.96818 24.6121C2.96773 25.4807 2.96846 26.3492 2.96965 27.2177C2.97069 28.0051 2.97051 28.7924 2.96943 29.5798C2.96818 30.4943 2.96771 31.4088 2.9684 32.3233C2.96877 32.8074 2.96882 33.2914 2.96804 33.7754C2.96737 34.2305 2.96783 34.6855 2.96919 35.1405C2.9695 35.3076 2.96941 35.4748 2.96889 35.6419C2.96826 35.8698 2.96906 36.0976 2.97023 36.3255C2.9697 36.3919 2.96918 36.4583 2.96864 36.5267C2.97226 36.8887 2.99882 37.128 3.23436 37.4219C3.45383 37.5316 3.63573 37.5103 3.88132 37.511C3.93222 37.5112 3.98313 37.5114 4.03557 37.5117C4.20692 37.5124 4.37826 37.5125 4.54961 37.5126C4.67215 37.5129 4.79469 37.5133 4.91723 37.5138C5.25072 37.5148 5.58421 37.5153 5.91771 37.5156C6.12597 37.5159 6.33424 37.5162 6.5425 37.5165C7.19386 37.5176 7.84522 37.5184 8.49658 37.5187C9.24895 37.519 10.0013 37.5204 10.7537 37.5226C11.3349 37.5243 11.9161 37.5251 12.4973 37.5252C12.8446 37.5253 13.1919 37.5258 13.5391 37.5272C13.8659 37.5285 14.1926 37.5286 14.5193 37.5279C14.6392 37.5279 14.7591 37.5282 14.879 37.529C15.0427 37.53 15.2064 37.5295 15.3701 37.5287C15.4618 37.5288 15.5534 37.5289 15.6478 37.5291C15.9337 37.4948 16.072 37.4667 16.2812 37.2656C16.3207 37.0176 16.3333 36.8112 16.3298 36.5628C16.3303 36.49 16.3308 36.4172 16.3313 36.3423C16.3325 36.0973 16.3309 35.8525 16.3293 35.6076C16.3296 35.4325 16.33 35.2573 16.3306 35.0822C16.3317 34.6057 16.3304 34.1292 16.3286 33.6527C16.327 33.1548 16.3275 32.657 16.3276 32.1591C16.3276 31.3229 16.3261 30.4867 16.3236 29.6505C16.321 28.7897 16.3199 27.929 16.3204 27.0683C16.321 26.0316 16.3204 24.9949 16.3187 23.9582C16.318 23.562 16.3178 23.1658 16.318 22.7695C16.318 22.3032 16.3169 21.8369 16.3149 21.3706C16.3143 21.1991 16.3142 21.0276 16.3144 20.8562C16.3147 20.6227 16.3136 20.3894 16.312 20.156C16.3125 20.0875 16.3129 20.019 16.3133 19.9485C16.3199 19.6112 16.3199 19.6112 16.1764 19.3187C15.9722 19.1612 15.7882 19.1887 15.5338 19.1879C15.4815 19.1875 15.4291 19.187 15.3752 19.1865C15.1994 19.1852 15.0236 19.1856 14.8478 19.1859C14.7219 19.1854 14.5961 19.1847 14.4702 19.1839C14.128 19.1822 13.7858 19.182 13.4436 19.1821C13.1582 19.1821 12.8728 19.1815 12.5874 19.1808C11.9142 19.1793 11.2411 19.1791 10.568 19.1796C9.87286 19.1801 9.17779 19.1783 8.48269 19.1754C7.88641 19.1731 7.29015 19.1722 6.69387 19.1725C6.3375 19.1726 5.98116 19.1722 5.6248 19.1703C5.2898 19.1686 4.95485 19.1687 4.61985 19.1703C4.49674 19.1705 4.37363 19.1701 4.25052 19.169C4.08274 19.1676 3.91515 19.1686 3.74738 19.1702C3.60644 19.1701 3.60644 19.1701 3.46265 19.17C3.22647 19.198 3.22647 19.198 3.08697 19.373Z" fill="black"/>
<path d="M24.963 -0.0115012C25.0191 -0.0117884 25.0752 -0.0120757 25.1331 -0.0123716C25.3212 -0.0132321 25.5093 -0.0135339 25.6974 -0.0138317C25.8323 -0.0143213 25.9672 -0.0148406 26.1021 -0.0153874C26.5452 -0.01703 26.9883 -0.0178407 27.4314 -0.0186192C27.5842 -0.0189354 27.7369 -0.0192571 27.8896 -0.019584C28.6074 -0.0210723 29.3252 -0.022184 30.0429 -0.0228349C30.8704 -0.0235978 31.6979 -0.0256525 32.5254 -0.0288116C33.1656 -0.0311715 33.8058 -0.032325 34.446 -0.0325835C34.828 -0.0327667 35.2101 -0.0334619 35.5921 -0.035432C35.9519 -0.0372574 36.3117 -0.0375789 36.6715 -0.0367788C36.8031 -0.0367402 36.9346 -0.0372296 37.0662 -0.0383066C37.9932 -0.0454681 38.8273 0.029694 39.5744 0.638729C40.1992 1.25559 40.523 1.97074 40.5317 2.84553C40.5312 2.91621 40.5307 2.98689 40.5303 3.05971C40.5309 3.17511 40.5309 3.17511 40.5315 3.29284C40.5326 3.54904 40.5321 3.80521 40.5315 4.06141C40.532 4.24574 40.5325 4.43007 40.5332 4.61441C40.5346 5.11399 40.5345 5.61355 40.534 6.11313C40.5338 6.42543 40.534 6.73773 40.5344 7.05003C40.5344 7.10196 40.5345 7.15389 40.5346 7.2074C40.5347 7.31292 40.5348 7.41845 40.5349 7.52397C40.536 8.51225 40.5356 9.50052 40.5347 10.4888C40.5339 11.3918 40.5349 12.2947 40.5368 13.1977C40.5387 14.1263 40.5394 15.0549 40.5389 15.9834C40.5386 16.5042 40.5388 17.025 40.5402 17.5457C40.5414 18.0355 40.5411 18.5252 40.5396 19.0149C40.5393 19.1944 40.5396 19.3738 40.5404 19.5532C40.5414 19.7988 40.5405 20.0442 40.5391 20.2897C40.5403 20.3955 40.5403 20.3955 40.5414 20.5034C40.5316 21.3525 40.173 22.0282 39.5918 22.6318C39.0224 23.159 38.3716 23.3686 37.6078 23.3703C37.5526 23.3706 37.4974 23.3708 37.4405 23.371C37.2554 23.3717 37.0703 23.3718 36.8853 23.372C36.7526 23.3723 36.6199 23.3727 36.4872 23.3731C36.1265 23.3742 35.7659 23.3747 35.4053 23.375C35.1798 23.3752 34.9544 23.3756 34.7289 23.3759C34.023 23.377 33.3171 23.3777 32.6113 23.378C31.7973 23.3784 30.9834 23.3798 30.1694 23.382C29.5398 23.3837 28.9101 23.3845 28.2804 23.3846C27.9046 23.3847 27.5288 23.3851 27.153 23.3865C26.7992 23.3878 26.4454 23.388 26.0915 23.3873C25.9621 23.3873 25.8326 23.3876 25.7032 23.3884C24.6486 23.3943 23.8247 23.2906 23 22.5781C22.0451 21.6105 22.0952 20.4914 22.1002 19.2177C22.0997 19.035 22.0992 18.8523 22.0985 18.6696C22.0971 18.1752 22.0976 17.6808 22.0986 17.1864C22.0993 16.7207 22.0988 16.255 22.0983 15.7892C22.0974 14.8106 22.0985 13.832 22.1001 12.8535C22.1015 12.0153 22.1013 11.1771 22.0999 10.3389C22.0982 9.36357 22.0975 8.38829 22.0985 7.413C22.099 6.89743 22.099 6.38187 22.098 5.8663C22.0971 5.3815 22.0977 4.89673 22.0995 4.41194C22.0999 4.23442 22.0998 4.05689 22.0991 3.87937C22.0948 2.64149 22.1395 1.6528 23.0515 0.727841C23.6236 0.20531 24.1944 -0.00894973 24.963 -0.0115012ZM24.7187 2.73437C24.6793 2.98235 24.6666 3.18883 24.6702 3.43721C24.6697 3.50998 24.6692 3.58276 24.6687 3.65774C24.6675 3.90265 24.6691 4.14748 24.6707 4.39239C24.6704 4.56754 24.6699 4.74268 24.6693 4.91783C24.6682 5.39432 24.6696 5.87079 24.6714 6.34728C24.673 6.84515 24.6725 7.34302 24.6723 7.8409C24.6723 8.6771 24.6739 9.5133 24.6764 10.3495C24.679 11.2103 24.6801 12.071 24.6796 12.9317C24.679 13.9684 24.6796 15.0051 24.6813 16.0418C24.6819 16.438 24.6821 16.8342 24.682 17.2305C24.6819 17.6968 24.683 18.1631 24.6851 18.6294C24.6856 18.8009 24.6858 18.9723 24.6855 19.1438C24.6852 19.3773 24.6864 19.6106 24.6879 19.844C24.6875 19.9125 24.6871 19.981 24.6866 20.0515C24.6801 20.3888 24.6801 20.3888 24.8235 20.6813C25.0278 20.8388 25.2118 20.8113 25.4661 20.8121C25.5447 20.8128 25.5446 20.8128 25.6248 20.8135C25.8006 20.8148 25.9763 20.8144 26.1521 20.8141C26.278 20.8146 26.4039 20.8153 26.5298 20.8161C26.872 20.8178 27.2142 20.818 27.5564 20.8179C27.8418 20.8179 28.1272 20.8185 28.4126 20.8192C29.0857 20.8207 29.7589 20.8209 30.432 20.8204C31.1271 20.8199 31.8222 20.8217 32.5173 20.8246C33.1135 20.8269 33.7098 20.8278 34.3061 20.8275C34.6625 20.8274 35.0188 20.8278 35.3752 20.8297C35.7102 20.8314 36.0451 20.8313 36.3801 20.8297C36.5032 20.8294 36.6263 20.8299 36.7494 20.831C36.9172 20.8324 37.0848 20.8314 37.2526 20.8298C37.3935 20.8299 37.3935 20.8299 37.5373 20.83C37.7735 20.802 37.7735 20.802 37.913 20.627C38.0309 20.3066 38.0324 20.0238 38.0297 19.6849C38.0303 19.5781 38.0303 19.5781 38.0308 19.4691C38.0318 19.2305 38.031 18.9918 38.0303 18.7532C38.0306 18.5821 38.031 18.4111 38.0315 18.24C38.0326 17.7753 38.0322 17.3106 38.0315 16.8459C38.0309 16.3599 38.0314 15.8739 38.0318 15.3878C38.0322 14.5193 38.0315 13.6508 38.0303 12.7823C38.0293 11.9949 38.0294 11.2076 38.0305 10.4202C38.0318 9.50568 38.0323 8.59118 38.0316 7.67667C38.0312 7.19264 38.0311 6.7086 38.0319 6.22457C38.0326 5.76954 38.0321 5.31452 38.0308 4.8595C38.0305 4.69236 38.0306 4.52522 38.0311 4.35808C38.0317 4.1302 38.0309 3.90237 38.0297 3.67449C38.0305 3.57492 38.0305 3.57492 38.0313 3.47333C38.0277 3.11127 38.0011 2.87203 37.7656 2.57812C37.5461 2.46839 37.3642 2.48965 37.1186 2.48902C37.0677 2.48879 37.0168 2.48856 36.9644 2.48832C36.793 2.48764 36.6217 2.48752 36.4503 2.48741C36.3278 2.48705 36.2053 2.48665 36.0827 2.48623C35.7492 2.48521 35.4157 2.4847 35.0823 2.48436C34.874 2.48413 34.6657 2.48381 34.4575 2.48346C33.8061 2.48239 33.1547 2.48163 32.5034 2.48133C31.751 2.48098 30.9987 2.47961 30.2463 2.47735C29.6651 2.47566 29.0839 2.47487 28.5027 2.47477C28.1554 2.47469 27.8081 2.47422 27.4608 2.47283C27.1341 2.47154 26.8074 2.47137 26.4807 2.47206C26.3608 2.47212 26.2409 2.47178 26.121 2.47101C25.9573 2.47001 25.7936 2.47047 25.6298 2.47129C25.5382 2.47117 25.4466 2.47106 25.3522 2.47094C25.0663 2.50515 24.928 2.53332 24.7187 2.73437Z" fill="black"/>
<path d="M25.8056 26.6091C25.939 26.6086 26.0724 26.6081 26.2058 26.6074C26.5666 26.606 26.9274 26.6061 27.2881 26.6066C27.59 26.6068 27.8919 26.6063 28.1938 26.6059C28.9064 26.6048 29.6189 26.6049 30.3315 26.6058C31.065 26.6067 31.7985 26.6056 32.532 26.6035C33.1633 26.6017 33.7946 26.6012 34.4258 26.6017C34.8022 26.6019 35.1785 26.6018 35.5549 26.6004C35.909 26.5992 36.2631 26.5995 36.6172 26.601C36.7466 26.6013 36.876 26.601 37.0054 26.6002C38.0995 26.5938 38.9688 26.7594 39.7722 27.5516C40.2227 28.0448 40.508 28.5992 40.5115 29.2732C40.5124 29.3834 40.5124 29.3834 40.5132 29.4958C40.5134 29.5759 40.5136 29.656 40.5138 29.7385C40.5144 29.8233 40.5149 29.908 40.5154 29.9954C40.5169 30.2761 40.5179 30.5569 40.5186 30.8377C40.5189 30.9337 40.5193 31.0298 40.5196 31.1287C40.5211 31.5849 40.5222 32.041 40.5228 32.4971C40.5235 32.9697 40.525 33.4423 40.5279 33.9149C40.5309 34.4229 40.5324 34.9308 40.5327 35.4387C40.5331 35.6319 40.534 35.825 40.5354 36.0181C40.5374 36.2892 40.5373 36.5603 40.5367 36.8314C40.5382 36.9498 40.5382 36.9498 40.5398 37.0707C40.5339 37.8768 40.2939 38.6362 39.7188 39.2187C38.8368 39.9654 38.0023 40.0349 36.8976 40.0316C36.7625 40.032 36.6274 40.0326 36.4924 40.0332C36.1271 40.0346 35.7618 40.0345 35.3965 40.0341C35.0909 40.0338 34.7854 40.0343 34.4798 40.0348C33.7586 40.0359 33.0374 40.0357 32.3162 40.0348C31.5736 40.0339 30.8309 40.035 30.0883 40.0371C29.4493 40.0389 28.8104 40.0394 28.1714 40.0389C27.7904 40.0387 27.4093 40.0389 27.0283 40.0402C26.6699 40.0414 26.3115 40.0411 25.9531 40.0396C25.822 40.0393 25.691 40.0396 25.5599 40.0404C24.4716 40.0467 23.672 39.8659 22.8682 39.0918C22.4095 38.5964 22.1328 37.9726 22.1291 37.2952C22.1286 37.2231 22.128 37.1509 22.1274 37.0766C22.1272 36.998 22.127 36.9194 22.1268 36.8384C22.1263 36.7551 22.1258 36.6719 22.1253 36.5861C22.1237 36.3104 22.1228 36.0347 22.122 35.759C22.1217 35.6647 22.1214 35.5703 22.1211 35.4732C22.1194 34.9737 22.1183 34.4743 22.1176 33.9749C22.1167 33.4601 22.114 32.9455 22.1109 32.4308C22.1089 32.0341 22.1082 31.6374 22.1079 31.2406C22.1076 31.051 22.1067 30.8613 22.1052 30.6717C22.1033 30.4054 22.1034 30.1393 22.1039 29.873C22.1029 29.7955 22.1019 29.718 22.1009 29.6382C22.1072 28.7767 22.391 28.0378 23 27.4219C23.8745 26.6777 24.7081 26.6057 25.8056 26.6091ZM24.8058 29.3177C24.6993 29.4834 24.689 29.5799 24.688 29.7763C24.6871 29.842 24.6862 29.9078 24.6853 29.9755C24.6855 30.0473 24.6857 30.1192 24.686 30.1932C24.685 30.307 24.685 30.307 24.684 30.423C24.6821 30.6743 24.682 30.9255 24.6821 31.1768C24.6816 31.351 24.681 31.5253 24.6803 31.6995C24.6793 32.065 24.6792 32.4304 24.6796 32.7958C24.6801 33.2648 24.6777 33.7337 24.6745 34.2026C24.6725 34.5625 24.6723 34.9224 24.6726 35.2823C24.6724 35.4553 24.6717 35.6282 24.6703 35.8012C24.6686 36.0427 24.6693 36.2841 24.6707 36.5256C24.6697 36.5974 24.6686 36.6693 24.6676 36.7433C24.6684 36.809 24.6693 36.8747 24.6702 36.9424C24.6702 36.9995 24.6701 37.0566 24.67 37.1154C24.7094 37.2829 24.7094 37.2829 24.8846 37.4011C25.1501 37.5179 25.3391 37.5295 25.6288 37.5298C25.68 37.5301 25.7311 37.5305 25.7838 37.5309C25.9547 37.5318 26.1254 37.5311 26.2962 37.5303C26.4189 37.5306 26.5416 37.5311 26.6643 37.5316C26.9972 37.5326 27.33 37.5322 27.6628 37.5315C28.0111 37.5309 28.3594 37.5314 28.7078 37.5318C29.2926 37.5322 29.8774 37.5317 30.4623 37.5306C31.1386 37.5293 31.8148 37.5297 32.4911 37.531C33.0717 37.532 33.6523 37.5322 34.233 37.5316C34.5798 37.5312 34.9265 37.5312 35.2733 37.5319C35.5993 37.5326 35.9252 37.5321 36.2512 37.5308C36.3708 37.5305 36.4905 37.5306 36.6102 37.5311C36.7735 37.5317 36.9366 37.5309 37.0999 37.5298C37.237 37.5296 37.237 37.5296 37.3768 37.5295C37.6338 37.4969 37.7406 37.4479 37.9219 37.2656C38.0258 36.954 38.0122 36.6545 38.0126 36.3295C38.013 36.2577 38.0134 36.1859 38.0138 36.112C38.0149 35.8742 38.0155 35.6364 38.0159 35.3986C38.0163 35.2334 38.0168 35.0683 38.0172 34.9032C38.0181 34.5568 38.0185 34.2104 38.0188 33.8641C38.0192 33.4202 38.0211 32.9763 38.0233 32.5324C38.0248 32.1912 38.0252 31.8501 38.0253 31.509C38.0255 31.3453 38.0262 31.1817 38.0272 31.018C38.0285 30.7891 38.0284 30.5602 38.0279 30.3313C38.0289 30.2299 38.0289 30.2299 38.03 30.1264C38.0296 30.0637 38.0292 30.0011 38.0287 29.9365C38.0288 29.8825 38.029 29.8284 38.0291 29.7727C37.9873 29.538 37.9181 29.4027 37.7656 29.2187C37.5299 29.1601 37.5299 29.1601 37.2526 29.1702C37.1741 29.1694 37.1741 29.1694 37.094 29.1687C36.9181 29.1675 36.7424 29.1691 36.5666 29.1707C36.4407 29.1704 36.3148 29.17 36.189 29.1694C35.8467 29.1683 35.5046 29.1696 35.1624 29.1714C34.8046 29.173 34.4469 29.1725 34.0892 29.1723C33.4884 29.1724 32.8876 29.1739 32.2867 29.1764C31.5916 29.1793 30.8966 29.18 30.2015 29.1794C29.5334 29.1789 28.8654 29.1798 28.1973 29.1813C27.9127 29.1819 27.6282 29.1821 27.3436 29.182C27.0086 29.182 26.6736 29.1831 26.3386 29.1851C26.2155 29.1857 26.0924 29.1858 25.9693 29.1856C25.8016 29.1853 25.6339 29.1864 25.4662 29.1879C25.3722 29.1882 25.2782 29.1885 25.1814 29.1888C24.9557 29.2012 24.9557 29.2012 24.8058 29.3177Z" fill="black"/>
<path d="M4.10244 -0.0315704C4.23752 -0.0320165 4.37259 -0.0325607 4.50766 -0.0331953C4.87295 -0.0345924 5.23822 -0.0345056 5.60351 -0.0340591C5.90909 -0.0338171 6.21466 -0.0342941 6.52024 -0.0347653C7.24143 -0.0358612 7.9626 -0.0357417 8.68378 -0.0348511C9.42645 -0.0339541 10.1691 -0.035054 10.9118 -0.0371477C11.5507 -0.0388811 12.1897 -0.0393967 12.8286 -0.0389386C13.2097 -0.0386758 13.5907 -0.0388607 13.9717 -0.0402082C14.3301 -0.0414205 14.6885 -0.0411036 15.0469 -0.0396375C15.178 -0.0393506 15.3091 -0.0395893 15.4401 -0.0404098C16.5285 -0.0466994 17.328 0.134114 18.1319 0.908199C18.5906 1.40362 18.8673 2.02735 18.8709 2.70476C18.8717 2.81299 18.8717 2.81299 18.8726 2.92341C18.8728 3.00202 18.873 3.08064 18.8732 3.16164C18.8737 3.24488 18.8742 3.32813 18.8748 3.4139C18.8763 3.68961 18.8772 3.96531 18.878 4.24102C18.8783 4.33534 18.8786 4.42965 18.879 4.52682C18.8806 5.02626 18.8817 5.5257 18.8825 6.02514C18.8833 6.53984 18.886 7.05452 18.8891 7.56921C18.8912 7.96593 18.8918 8.36264 18.8921 8.75936C18.8925 8.94902 18.8934 9.13867 18.8948 9.32831C18.8967 9.59455 18.8966 9.86072 18.8961 10.127C18.8976 10.2432 18.8976 10.2432 18.8991 10.3618C18.8928 11.2238 18.6086 11.9614 18 12.5781C17.1211 13.3374 16.2281 13.3943 15.1146 13.3909C14.9819 13.3914 14.8493 13.3919 14.7167 13.3926C14.3583 13.394 14 13.3939 13.6416 13.3934C13.3417 13.3932 13.0417 13.3937 12.7418 13.3941C12.0338 13.3952 11.3259 13.3951 10.6179 13.3942C9.88922 13.3933 9.16055 13.3944 8.43186 13.3965C7.80457 13.3982 7.1773 13.3988 6.55002 13.3983C6.17609 13.398 5.80218 13.3982 5.42826 13.3996C5.07652 13.4008 4.72481 13.4005 4.37307 13.399C4.24455 13.3987 4.11603 13.399 3.98752 13.3998C2.89617 13.4062 2.02892 13.2383 1.22786 12.4484C0.775943 11.9537 0.492022 11.3991 0.488518 10.7233C0.487959 10.6491 0.4874 10.5748 0.486824 10.4983C0.486508 10.3769 0.486508 10.3769 0.486187 10.2531C0.485674 10.1674 0.48516 10.0818 0.484631 9.99353C0.483091 9.70984 0.482179 9.42615 0.4814 9.14245C0.481081 9.04545 0.480763 8.94846 0.480435 8.84852C0.478973 8.38792 0.477835 7.92732 0.477184 7.46671C0.476421 6.93663 0.474368 6.40657 0.471207 5.8765C0.468557 5.41615 0.46764 4.95581 0.467324 4.49545C0.466944 4.30028 0.466038 4.10511 0.464587 3.90995C0.462678 3.63621 0.462757 3.36254 0.463299 3.08879C0.462298 3.00881 0.461297 2.92883 0.460266 2.84643C0.465951 2.05467 0.725163 1.35521 1.28127 0.781246C2.1622 0.0338772 2.99841 -0.0348667 4.10244 -0.0315704ZM3.07814 2.73437C2.97426 3.046 2.98784 3.3455 2.98743 3.67046C2.98704 3.74226 2.98665 3.81405 2.98625 3.88803C2.98511 4.12583 2.98458 4.36363 2.98415 4.60144C2.9837 4.76657 2.98325 4.9317 2.9828 5.09683C2.98198 5.4432 2.98152 5.78957 2.98125 6.13594C2.98082 6.57983 2.97894 7.02371 2.97672 7.46761C2.97526 7.80874 2.97486 8.14988 2.97474 8.49102C2.9745 8.65468 2.97387 8.81833 2.97285 8.98198C2.97151 9.2109 2.97166 9.43977 2.97217 9.66869C2.97145 9.73632 2.97073 9.80394 2.96999 9.87362C2.97042 9.93627 2.97086 9.99892 2.9713 10.0635C2.97119 10.1175 2.97108 10.1716 2.97096 10.2273C3.01271 10.462 3.08192 10.5973 3.23439 10.7812C3.47018 10.8399 3.47018 10.8399 3.74741 10.8298C3.79977 10.8303 3.85212 10.8308 3.90606 10.8313C4.0819 10.8325 4.2576 10.8309 4.43343 10.8293C4.55931 10.8296 4.68519 10.83 4.81108 10.8306C5.15329 10.8317 5.49545 10.8304 5.83765 10.8286C6.19539 10.827 6.55312 10.8275 6.91086 10.8276C7.51168 10.8276 8.11248 10.8261 8.71329 10.8236C9.40839 10.8207 10.1035 10.82 10.7986 10.8206C11.4666 10.8211 12.1347 10.8202 12.8027 10.8187C13.0873 10.8181 13.3719 10.8178 13.6565 10.818C13.9914 10.818 14.3264 10.8169 14.6614 10.8149C14.7845 10.8143 14.9076 10.8142 15.0307 10.8144C15.1985 10.8147 15.3661 10.8136 15.5339 10.8121C15.6278 10.8118 15.7218 10.8115 15.8186 10.8112C16.0444 10.7988 16.0444 10.7988 16.1942 10.6823C16.3007 10.5166 16.3111 10.4201 16.3121 10.2237C16.3134 10.1251 16.3134 10.1251 16.3148 10.0245C16.3145 9.95268 16.3143 9.88084 16.3141 9.80682C16.3147 9.73096 16.3154 9.6551 16.3161 9.57695C16.3179 9.3257 16.318 9.07449 16.3179 8.82324C16.3184 8.64898 16.319 8.47472 16.3197 8.30045C16.3207 7.93503 16.3209 7.56963 16.3204 7.2042C16.3199 6.73523 16.3223 6.26631 16.3255 5.79735C16.3275 5.43745 16.3277 5.07756 16.3275 4.71765C16.3276 4.54471 16.3283 4.37177 16.3297 4.19883C16.3315 3.95732 16.3307 3.71593 16.3293 3.47442C16.3304 3.40258 16.3314 3.33074 16.3325 3.25672C16.3316 3.191 16.3307 3.12528 16.3298 3.05757C16.3299 2.97193 16.3299 2.97193 16.33 2.88457C16.2906 2.71706 16.2906 2.71706 16.1154 2.59884C15.8499 2.48209 15.6609 2.47051 15.3712 2.47023C15.3201 2.46987 15.2689 2.4695 15.2162 2.46913C15.0454 2.46819 14.8746 2.46893 14.7038 2.46967C14.5811 2.46935 14.4584 2.46893 14.3357 2.46842C14.0029 2.46736 13.67 2.46777 13.3372 2.46851C12.9889 2.46911 12.6406 2.46856 12.2923 2.46819C11.7074 2.46776 11.1226 2.46832 10.5378 2.46944C9.86148 2.47072 9.18521 2.4703 8.50893 2.46901C7.92831 2.46795 7.34769 2.4678 6.76707 2.46841C6.42027 2.46878 6.07349 2.46883 5.72669 2.46805C5.40074 2.46738 5.07481 2.46784 4.74886 2.4692C4.62918 2.46951 4.5095 2.46942 4.38983 2.4689C4.22657 2.46826 4.06339 2.46906 3.90014 2.47023C3.76306 2.47037 3.76306 2.47037 3.62322 2.4705C3.36626 2.50309 3.25941 2.55213 3.07814 2.73437Z" fill="black"/>
</g>
<defs>
<clipPath id="clip0_208_286">
<rect width="40" height="40" fill="black" transform="translate(0.5)"/>
</clipPath>
</defs>
</svg>
