<svg width="22" height="22" viewBox="0 0 22 22" fill="none" xmlns="http://www.w3.org/2000/svg">
<path d="M4 20C3.44771 20.5523 2.55228 20.5523 2 20C1.44772 19.4477 1.44772 18.5523 2 18L7.58579 12.4142C8.36684 11.6332 8.36684 10.3668 7.58579 9.58579L2 4C1.44771 3.44771 1.44772 2.55228 2 2C2.55228 1.44772 3.44772 1.44772 4 2L9.58579 7.58579C10.3668 8.36684 11.6332 8.36684 12.4142 7.58579L18 2C18.5523 1.44771 19.4477 1.44772 20 2C20.5523 2.55228 20.5523 3.44772 20 4L14.4142 9.58579C13.6332 10.3668 13.6332 11.6332 14.4142 12.4142L20 18C20.5523 18.5523 20.5523 19.4477 20 20C19.4477 20.5523 18.5523 20.5523 18 20L12.4142 14.4142C11.6332 13.6332 10.3668 13.6332 9.58579 14.4142L4 20Z" fill="white" stroke="white" stroke-width="3"/>
</svg>
