<svg width="51" height="50" viewBox="0 0 51 50" fill="none" xmlns="http://www.w3.org/2000/svg">
<path d="M9.00028 12.1942C9.08088 12.1938 9.16148 12.1934 9.24453 12.1931C9.33306 12.1931 9.4216 12.1932 9.51281 12.1933C9.65392 12.1929 9.65392 12.1929 9.79788 12.1924C10.1145 12.1916 10.4312 12.1914 10.7479 12.1913C10.9743 12.1908 11.2008 12.1904 11.4273 12.1898C12.0437 12.1885 12.6602 12.1879 13.2766 12.1875C13.6617 12.1872 14.0468 12.1868 14.4319 12.1864C15.4986 12.1852 16.5653 12.1842 17.632 12.1838C17.7003 12.1838 17.7685 12.1838 17.8389 12.1838C17.9073 12.1837 17.9758 12.1837 18.0463 12.1837C18.185 12.1837 18.3237 12.1836 18.4624 12.1836C18.5312 12.1835 18.6 12.1835 18.6708 12.1835C19.7844 12.1831 20.898 12.1814 22.0116 12.1791C23.1556 12.1768 24.2995 12.1756 25.4434 12.1755C26.0854 12.1754 26.7274 12.1748 27.3695 12.1731C27.9738 12.1715 28.578 12.1713 29.1823 12.1721C29.4038 12.1722 29.6253 12.1718 29.8467 12.1708C30.1498 12.1695 30.4528 12.1701 30.7559 12.1711C30.8429 12.1704 30.9299 12.1696 31.0196 12.1688C32 12.1764 32.8509 12.4524 33.6055 13.0859C34.1686 13.6588 34.3952 14.4124 34.3897 15.2028C34.3893 15.2818 34.3888 15.3609 34.3884 15.4424C34.3879 15.5027 34.3873 15.5629 34.3867 15.625C34.4659 15.6256 34.5451 15.6261 34.6266 15.6267C35.3778 15.6324 36.1291 15.6395 36.8803 15.648C37.2663 15.6524 37.6524 15.6562 38.0385 15.6588C38.4121 15.6614 38.7857 15.6654 39.1593 15.6702C39.3008 15.6718 39.4423 15.673 39.5838 15.6736C40.9092 15.6799 42.0772 15.8121 43.1758 16.6016C43.2689 16.6661 43.2689 16.6661 43.3639 16.732C44.2101 17.3813 44.6172 18.3886 45.033 19.339C45.2846 19.9134 45.5461 20.4823 45.8152 21.0487C45.85 21.122 45.8847 21.1953 45.9205 21.2708C46.0616 21.5678 46.2027 21.8647 46.3447 22.1612C46.8946 23.3098 47.379 24.3433 47.3939 25.6396C47.3962 25.8274 47.3962 25.8274 47.3986 26.019C47.3997 26.1547 47.4008 26.2903 47.4017 26.4259C47.4023 26.495 47.4028 26.5641 47.4033 26.6354C47.4059 27.0014 47.4078 27.3675 47.4092 27.7336C47.4105 28.0342 47.4132 28.3348 47.4172 28.6354C47.4221 29.0008 47.4245 29.3661 47.4252 29.7316C47.4258 29.8696 47.4273 30.0076 47.4296 30.1457C47.4504 31.4344 47.1671 32.4378 46.2623 33.379C45.5726 33.9611 44.775 34.2927 43.8728 34.2869C43.7862 34.2866 43.6997 34.2863 43.6105 34.2859C43.5214 34.2851 43.4324 34.2843 43.3406 34.2834C43.2497 34.283 43.1587 34.2826 43.065 34.2821C42.8415 34.281 42.618 34.2794 42.3946 34.2773C42.3829 34.3356 42.3713 34.3939 42.3593 34.4539C42.1457 35.4766 41.6545 36.3567 40.7973 36.985C39.6392 37.714 38.4256 37.9536 37.0845 37.6831C35.9434 37.3978 35.0664 36.8291 34.4112 35.8521C34.1265 35.3701 33.8985 34.842 33.8985 34.2773C29.0323 34.2773 24.166 34.2773 19.1524 34.2773C19.1201 34.5029 19.0879 34.7285 19.0547 34.9609C18.6373 36.1046 17.8696 36.8398 16.8086 37.4023C15.6679 37.8897 14.4509 37.9414 13.2941 37.4817C12.2435 36.9904 11.4299 36.3288 10.9492 35.2539C10.844 34.9305 10.7483 34.6048 10.6563 34.2773C10.5878 34.2794 10.5194 34.2814 10.4489 34.2835C10.1376 34.2917 9.82629 34.2967 9.51492 34.3018C9.35338 34.3067 9.35338 34.3067 9.18858 34.3117C8.39436 34.3213 8.39436 34.3213 7.99706 34.108C7.80622 33.8636 7.75796 33.7542 7.76321 33.4473C7.76196 33.3737 7.7607 33.3002 7.7594 33.2245C7.864 32.875 7.99071 32.7931 8.31253 32.6172C8.71292 32.556 9.11041 32.5491 9.51492 32.5439C9.62451 32.541 9.73409 32.5382 9.84699 32.5352C10.1168 32.5283 10.3865 32.5231 10.6563 32.5195C10.694 32.4112 10.694 32.4112 10.7325 32.3006C10.7664 32.2051 10.8003 32.1095 10.8352 32.011C10.8684 31.9166 10.9016 31.8223 10.9358 31.725C11.331 30.7301 12.0791 29.9716 13.0367 29.5044C14.2113 29.0215 15.3786 28.9818 16.5828 29.4006C17.6669 29.8584 18.4551 30.6049 18.9662 31.6673C19.101 32.0031 19.1524 32.2525 19.1524 32.6172C24.0186 32.6172 28.8848 32.6172 33.8985 32.6172C33.9629 32.3271 34.0274 32.0371 34.0938 31.7383C34.5754 30.6448 35.3849 29.918 36.4654 29.4353C37.6455 28.9849 38.8459 28.9991 40.0007 29.5158C41.0121 30.0048 41.7773 30.7282 42.1962 31.7806C42.3946 32.3546 42.3946 32.3546 42.3946 32.6172C42.6734 32.6086 42.952 32.5982 43.2307 32.5867C43.3089 32.5845 43.387 32.5823 43.4674 32.58C44.1184 32.5508 44.5937 32.4303 45.1045 32.0007C45.4904 31.5398 45.6536 31.148 45.6567 30.5471C45.6579 30.4294 45.6592 30.3117 45.6604 30.1904C45.6601 30.0643 45.6599 29.9383 45.6596 29.8084C45.66 29.6761 45.6605 29.5438 45.6611 29.4114C45.662 29.1344 45.6618 28.8574 45.6608 28.5803C45.6597 28.2281 45.6616 27.876 45.6645 27.5238C45.6663 27.2504 45.6662 26.977 45.6657 26.7036C45.6657 26.5116 45.6673 26.3195 45.669 26.1275C45.663 25.3479 45.5469 24.7338 45.2266 24.0234C45.1973 23.9559 45.1681 23.8884 45.1379 23.8188C45.0555 23.6334 44.9691 23.4505 44.881 23.2677C44.8337 23.1681 44.8337 23.1681 44.7855 23.0665C44.6848 22.8542 44.5834 22.6423 44.482 22.4304C44.3411 22.1353 44.2005 21.84 44.0601 21.5446C44.0256 21.4723 43.9912 21.3999 43.9557 21.3253C43.7532 20.8976 43.5587 20.4674 43.3719 20.0325C43.3297 19.935 43.2874 19.8375 43.2439 19.737C43.169 19.5621 43.0956 19.3865 43.0241 19.2101C42.6873 18.4296 42.114 17.8956 41.3203 17.5781C40.9273 17.4802 40.5535 17.4655 40.1491 17.4604C40.0824 17.4595 40.0156 17.4585 39.9469 17.4575C39.7276 17.4544 39.5083 17.452 39.289 17.4496C39.1364 17.4476 38.9839 17.4455 38.8313 17.4434C38.4308 17.438 38.0302 17.4332 37.6297 17.4285C37.2205 17.4236 36.8114 17.4181 36.4022 17.4128C35.6002 17.4023 34.7982 17.3924 33.9961 17.3828C33.9912 17.4536 33.9864 17.5243 33.9813 17.5972C33.9268 18.3221 33.8327 19.0318 33.7112 19.7483C33.6831 19.9176 33.6831 19.9176 33.6544 20.0904C33.5929 20.4595 33.5308 20.8285 33.4686 21.1975C33.4363 21.3902 33.404 21.5828 33.3718 21.7755C33.2707 22.3793 33.1692 22.983 33.0674 23.5867C32.9625 24.2086 32.8584 24.8306 32.7547 25.4526C32.6653 25.9886 32.5755 26.5244 32.4852 27.0602C32.4314 27.3795 32.3779 27.6988 32.3247 28.0181C32.2655 28.3733 32.2055 28.7283 32.1453 29.0833C32.1278 29.1887 32.1104 29.2941 32.0925 29.4027C32.0677 29.5476 32.0677 29.5476 32.0423 29.6955C32.0212 29.8212 32.0212 29.8212 31.9996 29.9495C31.9249 30.261 31.8413 30.4954 31.5852 30.6946C31.2507 30.794 31.0119 30.7481 30.6758 30.6641C30.4378 30.5115 30.4378 30.5115 30.2852 30.2734C30.2326 29.5445 30.3778 28.8411 30.5019 28.125C30.5252 27.9876 30.5484 27.8502 30.5716 27.7128C30.6215 27.4182 30.6717 27.1237 30.7222 26.8291C30.8022 26.363 30.881 25.8967 30.9597 25.4303C31.1693 24.1883 31.3803 22.9466 31.5921 21.705C31.7314 20.8884 31.8701 20.0716 32.0076 19.2547C32.0856 18.7915 32.1646 18.3285 32.2443 17.8657C32.2938 17.5772 32.3423 17.2887 32.3906 17C32.4131 16.8668 32.4359 16.7335 32.4592 16.6004C32.6898 15.4512 32.6898 15.4512 32.3604 14.3677C31.8708 13.9053 31.3511 13.9368 30.7139 13.9396C30.6189 13.9393 30.5238 13.9389 30.4259 13.9385C30.1071 13.9376 29.7884 13.938 29.4696 13.9384C29.2412 13.9379 29.0127 13.9374 28.7843 13.9368C28.2923 13.9357 27.8003 13.9352 27.3083 13.9351C26.5966 13.9349 25.8848 13.9335 25.173 13.9316C24.0176 13.9286 22.8623 13.9262 21.7069 13.9245C21.6032 13.9243 21.6032 13.9243 21.4974 13.9242C20.7258 13.923 19.9543 13.922 19.1827 13.9212C18.9028 13.9209 18.6229 13.9206 18.343 13.9203C18.2394 13.9202 18.2394 13.9202 18.1336 13.9201C16.9824 13.9188 15.8312 13.9164 14.68 13.9131C13.9066 13.9109 13.1332 13.9102 12.3599 13.9104C11.8794 13.9102 11.3989 13.9089 10.9184 13.9071C10.6951 13.9066 10.4718 13.9065 10.2486 13.907C9.94443 13.9076 9.64036 13.9064 9.33624 13.9048C9.24728 13.9054 9.15831 13.906 9.06665 13.9066C8.47094 13.9008 8.47094 13.9008 8.16157 13.7297C7.94579 13.4934 7.9303 13.2994 7.90512 12.9887C7.93247 12.6698 8.08309 12.515 8.31253 12.3047C8.57703 12.2165 8.72884 12.1947 9.00028 12.1942ZM12.8692 31.72C12.379 32.3658 12.2457 32.9572 12.2722 33.7673C12.3736 34.4882 12.7295 35.0882 13.293 35.5469C14.0026 36.045 14.5677 36.2229 15.4414 36.1328C16.161 35.936 16.8306 35.4847 17.2336 34.8511C17.6155 34.1036 17.717 33.3822 17.4922 32.5623C17.2382 31.8897 16.7378 31.3358 16.1006 31.0059C14.9421 30.4889 13.7121 30.7784 12.8692 31.72ZM36.0469 31.7383C35.6087 32.4576 35.325 33.1485 35.506 34.0012C35.755 34.8506 36.251 35.5009 37.0235 35.9375C37.6022 36.2076 38.228 36.2267 38.8419 36.0657C39.6086 35.7856 40.1339 35.4084 40.5269 34.6863C40.8697 33.9304 40.9294 33.2062 40.6367 32.4219C40.245 31.6239 39.6751 31.1877 38.8789 30.8228C37.8235 30.6029 36.7544 30.8885 36.0469 31.7383Z" fill="black"/>
<path d="M35.6327 18.5279C35.7458 18.5269 35.8589 18.526 35.9755 18.525C36.0974 18.5251 36.2192 18.5252 36.3448 18.5253C36.4705 18.5249 36.5962 18.5245 36.7257 18.524C36.9918 18.5233 37.2578 18.5233 37.5239 18.5239C37.8634 18.5244 38.2029 18.5228 38.5424 18.5205C38.8678 18.5187 39.1932 18.5191 39.5186 18.5192C39.7005 18.5179 39.7005 18.5179 39.8861 18.5165C41.1782 18.5234 41.1782 18.5234 41.7279 19.0516C41.9721 19.4409 42.1445 19.8469 42.3186 20.2713C42.3564 20.3617 42.3941 20.4522 42.4331 20.5453C42.5126 20.7363 42.5918 20.9274 42.6706 21.1186C42.7904 21.4091 42.9114 21.6991 43.0325 21.9891C43.11 22.1753 43.1873 22.3616 43.2646 22.5479C43.3004 22.6337 43.3361 22.7195 43.3729 22.8079C44.1207 24.6258 44.1207 24.6258 43.7922 25.5871C43.5558 26.0737 43.1688 26.335 42.6875 26.5625C42.3281 26.6798 41.9819 26.6739 41.6058 26.6759C41.5026 26.6766 41.5026 26.6766 41.3973 26.6774C41.1704 26.6788 40.9434 26.6795 40.7164 26.68C40.5583 26.6806 40.4002 26.6811 40.2421 26.6817C39.9109 26.6827 39.5796 26.6833 39.2484 26.6836C38.8244 26.6842 38.4003 26.6865 37.9763 26.6893C37.6498 26.6911 37.3233 26.6916 36.9968 26.6918C36.8405 26.6921 36.6842 26.6928 36.5279 26.6941C36.3091 26.6958 36.0904 26.6956 35.8716 26.695C35.685 26.6955 35.685 26.6955 35.4947 26.696C35.1405 26.6571 34.9607 26.5824 34.6797 26.3672C34.4412 26.0095 34.4596 25.8371 34.4591 25.4107C34.4587 25.3436 34.4584 25.2766 34.458 25.2075C34.4572 24.9859 34.4578 24.7643 34.4584 24.5426C34.4583 24.3885 34.4581 24.2344 34.4579 24.0803C34.4576 23.7573 34.458 23.4343 34.4589 23.1112C34.46 22.6973 34.4594 22.2835 34.4582 21.8696C34.4575 21.5513 34.4577 21.2331 34.4582 20.9148C34.4584 20.7622 34.4582 20.6096 34.4577 20.457C34.4572 20.2436 34.458 20.0302 34.4591 19.8168C34.4592 19.6954 34.4594 19.574 34.4596 19.4489C34.4835 19.1515 34.5053 18.9892 34.6797 18.75C34.9887 18.5341 35.2623 18.5295 35.6327 18.5279ZM36.1445 20.2148C36.1445 21.7939 36.1445 23.373 36.1445 25C38.1103 25 40.0762 25 42.1015 25C42.324 24.6532 42.324 24.6532 42.263 24.4261C42.2357 24.3631 42.2084 24.3001 42.1802 24.2352C42.1499 24.1632 42.1195 24.0911 42.0883 24.0169C42.054 23.9399 42.0197 23.8628 41.9844 23.7835C41.9502 23.7033 41.9159 23.6231 41.8806 23.5405C41.7705 23.2838 41.6584 23.028 41.5461 22.7722C41.4723 22.6011 41.3986 22.4298 41.3251 22.2586C41.1614 21.8781 40.9964 21.4983 40.8302 21.1189C40.6994 20.8181 40.5706 20.5164 40.4414 20.2148C39.0234 20.2148 37.6054 20.2148 36.1445 20.2148Z" fill="black"/>
<path d="M4.81663 20.0091C4.94232 20.0093 5.06801 20.0095 5.19751 20.0097C5.33608 20.0104 5.47466 20.0111 5.61323 20.0119C5.75773 20.0124 5.90224 20.0128 6.04674 20.0132C6.43104 20.0144 6.81533 20.0163 7.19962 20.0184C7.42937 20.0195 7.65912 20.0204 7.88886 20.0212C8.72085 20.0241 9.55278 20.029 10.3847 20.0375C10.7715 20.0414 11.1582 20.0445 11.545 20.046C11.9293 20.0475 12.3136 20.0508 12.6978 20.0555C12.8419 20.0569 12.9859 20.0577 13.13 20.0578C13.3288 20.058 13.5276 20.0609 13.7264 20.0639C13.8388 20.0647 13.9512 20.0656 14.0669 20.0665C14.4345 20.1285 14.5985 20.2408 14.8555 20.5078C14.9302 20.9788 14.9523 21.1475 14.6821 21.5428C14.2721 21.9363 13.7021 21.8388 13.1709 21.8285C12.9913 21.8279 12.9913 21.8279 12.808 21.8272C12.4834 21.8256 12.1589 21.8218 11.8343 21.8168C11.4979 21.8121 11.1615 21.8098 10.8251 21.8072C10.2143 21.802 9.60352 21.7941 8.99275 21.7852C8.45272 21.7775 7.91271 21.7732 7.37265 21.7698C6.96466 21.7668 6.55671 21.762 6.14874 21.7565C5.9603 21.7541 5.77185 21.7523 5.5834 21.751C5.32408 21.749 5.06493 21.7445 4.80566 21.7392C4.73046 21.7391 4.65526 21.739 4.57778 21.7388C4.2353 21.7293 4.04865 21.7052 3.77397 21.4929C3.56688 21.2095 3.57526 21.0332 3.59297 20.6936C3.6376 20.4348 3.72626 20.2947 3.91798 20.1172C4.24059 20.0097 4.4769 20.008 4.81663 20.0091Z" fill="black"/>
<path d="M7.4437 15.8077C7.6008 15.8072 7.6008 15.8072 7.76106 15.8068C7.87556 15.807 7.99006 15.8071 8.10803 15.8073C8.22681 15.8072 8.34558 15.8071 8.46796 15.8069C8.8556 15.8067 9.24322 15.8073 9.63086 15.8081C9.76289 15.8083 9.89492 15.8085 10.0269 15.8088C10.9203 15.8104 11.8137 15.8146 12.707 15.8203C12.8088 15.8209 12.9106 15.8215 13.0155 15.8222C13.5089 15.8254 14.0022 15.8307 14.4956 15.8408C14.6329 15.8434 14.7702 15.8454 14.9076 15.8467C15.0936 15.8488 15.2795 15.8535 15.4654 15.8585C15.5658 15.8605 15.6662 15.8626 15.7696 15.8647C16.0943 15.9318 16.2131 16.0532 16.418 16.3086C16.489 16.5761 16.4746 16.8195 16.418 17.0898C16.2353 17.3273 16.0975 17.4454 15.832 17.5781C15.5255 17.5863 15.2212 17.5882 14.9146 17.5858C14.8166 17.5853 14.7186 17.5849 14.6177 17.5845C14.3964 17.5834 14.1752 17.5821 13.954 17.5805C13.6312 17.5784 13.3083 17.5769 12.9855 17.5757C12.2524 17.5728 11.5193 17.5677 10.7862 17.5602C10.4017 17.5563 10.0172 17.5531 9.63265 17.5517C9.25391 17.5502 8.87524 17.5468 8.49653 17.5422C8.35376 17.5407 8.21098 17.5399 8.06821 17.5399C7.87043 17.5396 7.67266 17.5368 7.47491 17.5338C7.36285 17.5329 7.25079 17.532 7.13533 17.5312C6.7842 17.4693 6.67081 17.3705 6.45703 17.0898C6.35938 16.7542 6.35938 16.7542 6.35938 16.4063C6.67107 15.9118 6.87819 15.8082 7.4437 15.8077Z" fill="black"/>
<path d="M7.43111 24.2754C7.6076 24.2731 7.6076 24.2731 7.78765 24.2707C7.91441 24.2707 8.04116 24.2706 8.17176 24.2706C8.30359 24.2699 8.43542 24.2692 8.56725 24.2684C8.84332 24.2671 9.11937 24.2669 9.39544 24.2675C9.74859 24.2681 10.1016 24.2651 10.4547 24.2611C10.7269 24.2586 10.9991 24.2583 11.2713 24.2587C11.4646 24.2584 11.6579 24.256 11.8512 24.2536C12.8262 24.2611 12.8262 24.2611 13.1284 24.5514C13.3866 24.9487 13.3672 25.1187 13.293 25.5859C13.0792 25.8485 12.9042 25.962 12.5671 26.0113C12.2637 26.0252 11.9628 26.0255 11.6592 26.0216C11.5473 26.0215 11.4354 26.0214 11.3201 26.0213C11.0835 26.0207 10.8468 26.0192 10.6102 26.0168C10.2503 26.0132 9.8906 26.0128 9.53075 26.0128C9.30027 26.0118 9.0698 26.0107 8.83933 26.0094C8.73269 26.0092 8.62605 26.0089 8.51617 26.0087C6.85958 25.9885 6.85958 25.9885 6.43874 25.5676C6.33422 25.2058 6.35648 24.9714 6.45705 24.6094C6.76415 24.3024 7.00615 24.2788 7.43111 24.2754Z" fill="black"/>
</svg>
