<svg width="51" height="50" viewBox="0 0 51 50" fill="none" xmlns="http://www.w3.org/2000/svg">
<path d="M16.125 7.91016C11.1055 10.5273 6.94531 12.7539 6.87695 12.8516C6.7793 12.9883 6.75 15.3418 6.75 25.0098C6.75 36.2793 6.75977 37.002 6.92578 37.1875C7.14062 37.4414 25.2461 46.875 25.5098 46.875C25.7734 46.875 43.8594 37.4414 44.084 37.1875C44.2402 37.002 44.25 36.2793 44.25 25C44.25 13.7207 44.2402 12.998 44.084 12.8125C43.8398 12.5391 25.7637 3.125 25.4805 3.13477C25.3535 3.13477 21.1445 5.2832 16.125 7.91016ZM33.6543 9.0332C38.0781 11.3379 41.7109 13.252 41.7109 13.2812C41.7109 13.3496 37.502 15.5566 37.3652 15.5566C37.3066 15.5566 33.9863 13.7012 29.9824 11.4258C25.9883 9.15039 22.502 7.16797 22.2383 7.02148L21.7598 6.75781L22.0918 6.58203C23.7812 5.67383 25.4609 4.80469 25.5195 4.81445C25.5586 4.82422 29.2207 6.71875 33.6543 9.0332ZM27.8145 11.9727C32.043 14.3652 35.5488 16.3574 35.5879 16.4062C35.6367 16.4453 34.7676 16.9531 33.6641 17.5293L31.6523 18.5645L24.0156 14.248C19.8066 11.875 16.3105 9.87305 16.2324 9.81445C16.1348 9.7168 16.4863 9.49219 18.0879 8.65234C19.1816 8.08594 20.0898 7.61719 20.0996 7.61719C20.1094 7.61719 23.5859 9.58008 27.8145 11.9727ZM22.1895 15C26.4277 17.4023 29.8945 19.3945 29.8945 19.4238C29.8945 19.4629 28.9082 20 27.707 20.6348L25.5098 21.7773L17.4043 17.5488C12.9414 15.2344 9.28906 13.3105 9.28906 13.2812C9.28906 13.2031 14.2012 10.6543 14.3574 10.6543C14.4258 10.6445 17.9512 12.6074 22.1895 15ZM17.4922 19.375L24.6699 23.1348L24.6992 33.9746L24.7188 44.8047L16.5156 40.5078L8.3125 36.2109V25.3906V14.5703L9.31836 15.0879C9.86523 15.3809 13.5469 17.3047 17.4922 19.375ZM42.6094 36.25C42.5703 36.2891 39.2793 38.0176 35.3145 40.0977C31.3398 42.168 27.6777 44.0723 27.1797 44.3359L26.2812 44.8145L26.3008 33.9648L26.3301 23.1152L28.625 21.9141L30.9199 20.7129L30.9688 23.4473L31.0176 26.1816L31.2617 26.3672C31.3984 26.4746 31.6133 26.5625 31.7402 26.5625C32.0332 26.5625 37.7754 23.291 37.9023 23.0469C37.9609 22.9395 38 21.6895 38 19.9316V17.0117L40.3242 15.8008L42.6387 14.5996L42.668 25.3809C42.6777 31.3184 42.6582 36.2012 42.6094 36.25ZM36.4375 20.0391V22.2168L34.9141 23.0859C34.0742 23.5645 33.1953 24.0625 32.9609 24.1895L32.5312 24.4336V22.1484V19.873L34.416 18.877C35.4414 18.3301 36.3203 17.8809 36.3691 17.8809C36.4082 17.8711 36.4375 18.8477 36.4375 20.0391Z" fill="black"/>
<path d="M9.33789 29.9316L9.09375 30.166V32.7637C9.09375 34.3848 9.13281 35.4395 9.19141 35.5566C9.32812 35.791 14.2695 38.2812 14.6113 38.2812C14.748 38.2812 14.9727 38.1738 15.0996 38.0371L15.3438 37.8027V35.2051C15.3438 33.584 15.3047 32.5293 15.2461 32.4121C15.1094 32.1777 10.168 29.6875 9.82617 29.6875C9.68945 29.6875 9.46484 29.7949 9.33789 29.9316ZM13.7812 34.7656V36.2305L12.2188 35.4492L10.6562 34.668V33.2031V31.7383L12.2188 32.5195L13.7812 33.3008V34.7656Z" fill="black"/>
<path d="M38.4688 33.3008C37.0137 34.0332 35.9004 34.6582 35.8125 34.7852C35.6855 34.9609 35.6562 35.2832 35.6562 36.4062C35.6562 37.7539 35.666 37.8125 35.9004 38.0371C36.0273 38.1738 36.252 38.2812 36.3887 38.2812C36.7305 38.2812 41.6719 35.791 41.8086 35.5566C41.8574 35.4492 41.9062 34.7461 41.9062 33.9355C41.9062 32.5488 41.8965 32.5 41.6621 32.2754C41.5352 32.1387 41.3301 32.0312 41.2031 32.041C41.0762 32.041 39.8457 32.6074 38.4688 33.3008ZM40.3438 34.375C40.3438 34.6582 40.2754 34.6973 38.7812 35.4492L37.2188 36.2305V35.9375C37.2188 35.6543 37.2871 35.6152 38.7617 34.873C39.6016 34.4434 40.3047 34.0918 40.3242 34.0918C40.334 34.082 40.3438 34.209 40.3438 34.375Z" fill="black"/>
<path d="M29.2988 37.1094C28.6836 37.4219 28.1172 37.7539 28.039 37.8418C27.8144 38.1152 27.873 38.5742 28.1758 38.8379C28.3222 38.9551 28.5273 39.0625 28.6347 39.0625C28.9277 39.0625 31.1347 37.9199 31.3008 37.6758C31.3886 37.5586 31.457 37.3535 31.457 37.2266C31.457 36.9141 31.0371 36.5234 30.7051 36.5332C30.5586 36.5332 29.9238 36.7871 29.2988 37.1094Z" fill="black"/>
<path d="M30.5586 39.5508C29.1133 40.2832 28 40.8984 27.9414 41.0059C27.6777 41.5039 28.0488 42.1875 28.5762 42.1875C28.8301 42.1875 33.6152 39.8535 33.9277 39.5703C34.0254 39.4824 34.0937 39.2871 34.0937 39.0527C34.0937 38.5938 33.8008 38.2812 33.3711 38.291C33.1855 38.291 32.0723 38.7891 30.5586 39.5508Z" fill="black"/>
</svg>
