<svg width="40" height="40" viewBox="0 0 40 40" fill="none" xmlns="http://www.w3.org/2000/svg">
<g clip-path="url(#clip0_208_353)">
<path d="M18.001 -0.0227261C18.0988 -0.023723 18.1966 -0.0247198 18.2974 -0.0257469C18.4032 -0.0259858 18.509 -0.0261598 18.6148 -0.0262738C18.7245 -0.0267766 18.8343 -0.0273023 18.944 -0.0278497C19.1737 -0.0287829 19.4033 -0.029075 19.6329 -0.0289822C19.9256 -0.0289664 20.2181 -0.031098 20.5108 -0.0337904C20.7374 -0.0355376 20.964 -0.0358443 21.1906 -0.035762C21.2984 -0.035945 21.4062 -0.0366282 21.514 -0.0378451C22.1473 -0.0443259 22.6514 -0.0138611 23.2031 0.312471C23.2541 0.342027 23.305 0.371582 23.3576 0.402033C23.9005 0.732498 24.1993 1.27972 24.375 1.87497C24.4172 2.10017 24.4469 2.32642 24.4757 2.55368C24.4841 2.6178 24.4926 2.68192 24.5013 2.74798C24.519 2.88295 24.5364 3.01795 24.5537 3.15297C24.58 3.35877 24.6071 3.56444 24.6344 3.77011C24.6515 3.90174 24.6686 4.03337 24.6856 4.16501C24.6937 4.22606 24.7017 4.28711 24.71 4.35C24.7509 4.67328 24.7741 4.98578 24.7656 5.31247C24.8131 5.32305 24.8607 5.33362 24.9096 5.34451C25.4515 5.4776 25.9396 5.6743 26.4396 5.91796C26.6597 6.02088 26.8366 6.09412 27.0816 6.09159C27.3241 5.99142 27.4842 5.8529 27.6806 5.67868C28.0616 5.3484 28.4534 5.03795 28.8574 4.7363C28.9094 4.69729 28.9614 4.65829 29.015 4.6181C29.7541 4.06756 30.4485 3.62924 31.4062 3.74997C32.2772 3.93236 32.7741 4.38961 33.3917 5.00333C33.4614 5.07232 33.5311 5.1413 33.6029 5.21238C33.7498 5.35815 33.8965 5.5041 34.0429 5.65032C34.2294 5.83634 34.4171 6.02107 34.6051 6.20551C34.7858 6.38333 34.9651 6.56256 35.1446 6.74161C35.2116 6.80707 35.2786 6.87252 35.3476 6.93996C35.8156 7.41151 36.182 7.91383 36.25 8.59372C36.2574 8.66638 36.2574 8.66638 36.2649 8.74051C36.318 9.69778 35.8667 10.3902 35.279 11.0998C35.0369 11.3959 34.8046 11.6997 34.5703 12.0019C34.5225 12.0631 34.4747 12.1242 34.4255 12.1872C34.3806 12.2447 34.3358 12.3022 34.2895 12.3614C34.2295 12.4383 34.2295 12.4383 34.1682 12.5166C33.9591 12.7667 33.9591 12.7667 33.9254 13.0752C33.986 13.2871 34.0597 13.4842 34.1458 13.6871C34.1773 13.7623 34.2087 13.8376 34.2411 13.9151C34.3078 14.0726 34.3746 14.23 34.4413 14.3875C34.4884 14.5 34.4884 14.5 34.5364 14.6148C34.5654 14.6831 34.5943 14.7514 34.6242 14.8218C34.6875 15 34.6875 15 34.6875 15.2343C34.7525 15.2383 34.8176 15.2423 34.8847 15.2465C35.5859 15.2926 36.2804 15.3641 36.9775 15.4541C37.0785 15.466 37.1794 15.4779 37.2834 15.4902C38.1144 15.5977 38.959 15.8105 39.5074 16.4929C39.8446 16.9783 40.0185 17.4024 40.0227 18.001C40.0242 18.1477 40.0242 18.1477 40.0257 18.2974C40.0259 18.4032 40.0261 18.509 40.0262 18.6148C40.0267 18.7245 40.0272 18.8343 40.0278 18.944C40.0287 19.1737 40.029 19.4033 40.0289 19.6329C40.0289 19.9256 40.031 20.2181 40.0337 20.5108C40.0355 20.7374 40.0358 20.964 40.0357 21.1906C40.0359 21.2984 40.0366 21.4062 40.0378 21.514C40.0443 22.1473 40.0138 22.6514 39.6875 23.2031C39.658 23.2541 39.6284 23.305 39.598 23.3575C39.3178 23.8172 38.8913 24.127 38.3787 24.285C37.7405 24.4298 37.104 24.5273 36.4548 24.6043C36.287 24.6242 36.1192 24.645 35.9515 24.666C35.0654 24.7744 35.0654 24.7744 34.6875 24.7656C34.6769 24.8131 34.6663 24.8607 34.6554 24.9096C34.5223 25.4515 34.3256 25.9396 34.082 26.4396C33.9791 26.6597 33.9058 26.8366 33.9084 27.0816C34.0085 27.3241 34.147 27.4842 34.3213 27.6806C34.6489 28.059 34.9585 28.4472 35.2588 28.8476C35.3163 28.9237 35.3163 28.9237 35.375 29.0012C35.9449 29.7638 36.3528 30.4224 36.25 31.4062C36.0831 32.3077 35.5074 32.8766 34.8791 33.5092C34.8157 33.5733 34.7524 33.6374 34.6871 33.7034C34.5536 33.838 34.4199 33.9724 34.286 34.1065C34.0827 34.3108 33.8809 34.5164 33.6792 34.7221C33.5486 34.8534 33.418 34.9846 33.2873 35.1156C33.2279 35.1766 33.1685 35.2376 33.1072 35.3004C32.5084 35.8942 31.8944 36.237 31.0418 36.2628C29.9731 36.2102 29.3209 35.6393 28.5281 34.9823C28.2825 34.7806 28.0309 34.5873 27.7783 34.3945C27.6994 34.3337 27.6206 34.2728 27.5393 34.2102C27.2621 33.9722 27.2621 33.9722 26.9223 33.9267C26.7255 33.9824 26.5413 34.0476 26.3525 34.1259C26.285 34.1535 26.2176 34.1811 26.148 34.2096C26.0786 34.2384 26.0091 34.2672 25.9375 34.2968C25.7993 34.3541 25.6609 34.4111 25.5224 34.4677C25.4615 34.493 25.4006 34.5183 25.3378 34.5443C25.1484 34.6122 24.9636 34.6528 24.7656 34.6875C24.7596 34.7851 24.7596 34.7851 24.7535 34.8847C24.7073 35.5859 24.6359 36.2804 24.5459 36.9775C24.5339 37.0785 24.522 37.1794 24.5097 37.2834C24.4368 37.8477 24.3353 38.3269 24.0625 38.8281C24.0206 38.9087 23.9787 38.9892 23.9355 39.0722C23.5563 39.5313 23.0704 39.8372 22.5 40C22.2585 40.0209 22.2585 40.0209 21.9989 40.0227C21.8522 40.0242 21.8522 40.0242 21.7026 40.0257C21.5968 40.0259 21.491 40.0261 21.3852 40.0262C21.2754 40.0267 21.1657 40.0272 21.0559 40.0278C20.8263 40.0287 20.5966 40.029 20.367 40.0289C20.0744 40.0289 19.7818 40.031 19.4892 40.0337C19.2626 40.0355 19.036 40.0358 18.8093 40.0357C18.7015 40.0359 18.5938 40.0366 18.486 40.0378C17.8526 40.0443 17.3486 40.0138 16.7968 39.6875C16.7459 39.6579 16.6949 39.6284 16.6424 39.5979C16.0995 39.2674 15.8006 38.7202 15.625 38.125C15.5827 37.8998 15.5531 37.6735 15.5243 37.4463C15.5158 37.3821 15.5074 37.318 15.4987 37.252C15.481 37.117 15.4635 36.982 15.4463 36.847C15.42 36.6412 15.3928 36.4355 15.3656 36.2298C15.3484 36.0982 15.3313 35.9666 15.3143 35.8349C15.3062 35.7739 15.2982 35.7128 15.2899 35.6499C15.249 35.3267 15.2258 35.0142 15.2343 34.6875C15.1868 34.6769 15.1393 34.6663 15.0903 34.6554C14.5484 34.5223 14.0604 34.3256 13.5603 34.082C13.3402 33.9791 13.1633 33.9058 12.9184 33.9084C12.6758 34.0085 12.5158 34.147 12.3193 34.3213C11.9384 34.6515 11.5465 34.962 11.1426 35.2636C11.0906 35.3026 11.0386 35.3417 10.985 35.3818C10.2413 35.9357 9.55161 36.3412 8.59372 36.25C7.6814 36.0742 7.11296 35.497 6.47092 34.8593C6.37191 34.7613 6.37191 34.7613 6.27091 34.6614C6.1323 34.5239 5.99391 34.3862 5.85572 34.2483C5.64499 34.0385 5.43284 33.8302 5.22061 33.6219C5.08553 33.4876 4.95054 33.3532 4.81565 33.2187C4.75257 33.1571 4.6895 33.0956 4.62451 33.0322C4.06586 32.469 3.79599 31.9217 3.72556 31.1328C3.76039 30.0304 4.34419 29.3407 5.0176 28.5281C5.21934 28.2825 5.41265 28.0309 5.60544 27.7783C5.66627 27.6994 5.7271 27.6206 5.78977 27.5393C6.02778 27.2621 6.02778 27.2621 6.07327 26.9223C6.01752 26.7255 5.95234 26.5413 5.87399 26.3525C5.8464 26.285 5.81881 26.2176 5.79038 26.148C5.76157 26.0786 5.73277 26.0091 5.7031 25.9375C5.64581 25.7993 5.58883 25.6609 5.5322 25.5224C5.50692 25.4615 5.48164 25.4006 5.4556 25.3378C5.38778 25.1484 5.34716 24.9636 5.31247 24.7656C5.22391 24.7596 5.22391 24.7596 5.13356 24.7535C4.49493 24.7076 3.85942 24.6444 3.22412 24.5652C3.11846 24.5523 3.01273 24.5398 2.90696 24.5278C2.01134 24.4259 1.08773 24.2476 0.492525 23.5071C0.155321 23.0216 -0.0185638 22.5975 -0.0227258 21.9989C-0.0237227 21.9011 -0.0247195 21.8033 -0.0257466 21.7026C-0.0259855 21.5968 -0.0261595 21.491 -0.0262735 21.3852C-0.0267763 21.2754 -0.027302 21.1657 -0.0278495 21.0559C-0.0287826 20.8263 -0.0290747 20.5966 -0.0289819 20.367C-0.0289661 20.0744 -0.0310973 19.7818 -0.0337896 19.4892C-0.0355368 19.2626 -0.0358437 19.036 -0.0357614 18.8093C-0.0359444 18.7015 -0.0366282 18.5938 -0.0378451 18.486C-0.0443259 17.8526 -0.0138608 17.3486 0.312472 16.7968C0.342027 16.7459 0.371583 16.6949 0.402034 16.6424C0.732251 16.0999 1.27977 15.7998 1.87497 15.625C2.10678 15.5825 2.33965 15.553 2.57352 15.5243C2.67258 15.5116 2.67258 15.5116 2.77364 15.4987C2.91261 15.481 3.05161 15.4635 3.19064 15.4463C3.40295 15.4199 3.61514 15.3928 3.82733 15.3656C3.96278 15.3484 4.09822 15.3313 4.23368 15.3143C4.32842 15.3022 4.32842 15.3022 4.42507 15.2899C4.7229 15.2532 5.01167 15.2245 5.31247 15.2343C5.32305 15.1868 5.33362 15.1393 5.34451 15.0903C5.4776 14.5484 5.6743 14.0604 5.91796 13.5603C6.02088 13.3402 6.09412 13.1633 6.09159 12.9184C5.99142 12.6758 5.8529 12.5158 5.67868 12.3193C5.3484 11.9384 5.03795 11.5465 4.7363 11.1425C4.69729 11.0906 4.65829 11.0386 4.6181 10.985C4.06635 10.2442 3.63194 9.55271 3.74997 8.59372C3.92061 7.68221 4.50496 7.11091 5.14066 6.47092C5.20596 6.40492 5.27125 6.33891 5.33853 6.27091C5.47601 6.1323 5.6137 5.99391 5.7516 5.85572C5.9614 5.64499 6.1697 5.43284 6.37799 5.22061C6.51233 5.08553 6.64676 4.95054 6.78128 4.81565C6.8736 4.72104 6.8736 4.72104 6.96779 4.62451C7.42797 4.16801 7.93149 3.81619 8.59372 3.74997C8.64216 3.74504 8.6906 3.7401 8.74051 3.73502C9.69778 3.68193 10.3902 4.13321 11.0998 4.72096C11.3959 4.96303 11.6997 5.19537 12.0019 5.42966C12.0936 5.50132 12.0936 5.50132 12.1872 5.57443C12.2447 5.6193 12.3022 5.66418 12.3614 5.71042C12.4126 5.75045 12.4639 5.79048 12.5166 5.83173C12.7677 6.04165 12.7677 6.04165 13.0777 6.07327C13.2744 6.01752 13.4586 5.95234 13.6474 5.87399C13.7149 5.8464 13.7824 5.81881 13.8519 5.79038C13.9214 5.76157 13.9909 5.73277 14.0625 5.7031C14.2007 5.64581 14.339 5.58883 14.4775 5.5322C14.5384 5.50692 14.5994 5.48164 14.6621 5.4556C14.8516 5.38778 15.0364 5.34716 15.2343 5.31247C15.2383 5.25343 15.2423 5.19439 15.2465 5.13356C15.2923 4.49493 15.3556 3.85942 15.4347 3.22412C15.4477 3.11846 15.4602 3.01273 15.4722 2.90696C15.574 2.01134 15.7523 1.08773 16.4929 0.492525C16.9783 0.155321 17.4024 -0.0185641 18.001 -0.0227261ZM17.4218 2.10935C17.3352 2.34075 17.2971 2.56802 17.2656 2.81247C17.2571 2.87015 17.2486 2.92782 17.2399 2.98724C17.2151 3.16557 17.1937 3.34405 17.1731 3.52292C17.1569 3.65628 17.1407 3.78965 17.1245 3.92301C17.0997 4.12969 17.0751 4.3364 17.051 4.54316C17.0272 4.74516 17.0026 4.94703 16.9778 5.1489C16.971 5.20971 16.9641 5.27052 16.9571 5.33318C16.8234 6.40826 16.8234 6.40826 16.4888 6.69057C16.4326 6.70912 16.3765 6.72768 16.3186 6.7468C16.2563 6.7691 16.194 6.79141 16.1298 6.81439C16.0346 6.84438 16.0346 6.84438 15.9375 6.87497C15.8209 6.91748 15.7044 6.9602 15.588 7.00315C15.4685 7.04512 15.349 7.08703 15.2295 7.12888C14.6699 7.32772 14.1435 7.55836 13.6271 7.85237C13.2504 8.057 12.996 8.08683 12.5781 8.04685C12.4045 7.97727 12.4045 7.97727 12.2607 7.87107C12.2022 7.82836 12.1437 7.78567 12.0834 7.74167C11.7219 7.45801 11.3621 7.17249 11.0049 6.88352C10.723 6.65585 10.4383 6.43214 10.1513 6.21091C10.0731 6.15048 9.99484 6.09006 9.91422 6.0278C9.47123 5.68357 9.47123 5.68357 8.95505 5.49314C8.65821 5.54943 8.59276 5.59267 8.3784 5.78753C8.2963 5.86204 8.2963 5.86204 8.21254 5.93805C7.95687 6.17825 7.70642 6.42298 7.45877 6.67142C7.40609 6.72403 7.3534 6.77664 7.29912 6.83085C7.18907 6.94085 7.07911 7.05094 6.96925 7.16113C6.80053 7.33027 6.6314 7.49898 6.46222 7.66767C6.35493 7.77501 6.24766 7.88238 6.14041 7.98978C6.0898 8.04023 6.03919 8.09069 5.98704 8.14267C5.94058 8.18938 5.89412 8.23609 5.84624 8.28422C5.80528 8.32524 5.76431 8.36627 5.7221 8.40854C5.54739 8.6011 5.49999 8.79154 5.50687 9.05087C5.59003 9.40001 5.84161 9.66467 6.06179 9.94008C6.18668 10.0967 6.30949 10.2548 6.43216 10.4132C6.62019 10.6558 6.80872 10.8979 6.99765 11.1398C8.07841 12.5262 8.07841 12.5262 8.07126 13.023C8.02486 13.3653 7.85429 13.6525 7.69528 13.955C7.35667 14.625 7.08568 15.2987 6.85758 16.014C6.83462 16.0824 6.81165 16.1508 6.788 16.2213C6.76883 16.2816 6.74966 16.342 6.72992 16.4041C6.60383 16.6277 6.4835 16.691 6.24997 16.7968C6.03671 16.8406 5.83324 16.8742 5.61795 16.8997C5.55694 16.9077 5.49592 16.9156 5.43306 16.9238C5.23834 16.9491 5.04349 16.9731 4.8486 16.997C4.72037 17.0134 4.59214 17.0298 4.46393 17.0463C4.21368 17.0785 3.96342 17.1105 3.71314 17.1425C3.65383 17.1501 3.59453 17.1577 3.53342 17.1655C3.41979 17.1798 3.30612 17.194 3.19242 17.2078C3.04087 17.2263 2.88943 17.2458 2.73801 17.2653C2.65339 17.2758 2.56877 17.2863 2.48158 17.2972C2.15896 17.3667 2.01208 17.4884 1.79685 17.7343C1.69874 17.9306 1.70667 18.0686 1.70365 18.2882C1.7024 18.3711 1.70114 18.454 1.69985 18.5395C1.69638 18.9194 1.69317 19.2992 1.69137 19.6791C1.69008 19.8794 1.68795 20.0798 1.68496 20.2801C1.68068 20.5688 1.67897 20.8575 1.67783 21.1462C1.67606 21.2356 1.67429 21.325 1.67246 21.417C1.66744 21.9337 1.66744 21.9337 1.87264 22.3942C2.18007 22.6331 2.43234 22.6854 2.81247 22.7343C2.87015 22.7428 2.92782 22.7513 2.98724 22.76C3.16557 22.7849 3.34405 22.8062 3.52292 22.8268C3.65629 22.843 3.78965 22.8592 3.92301 22.8755C4.12969 22.9003 4.3364 22.9248 4.54316 22.949C4.74516 22.9727 4.94703 22.9974 5.1489 23.0221C5.20971 23.029 5.27052 23.0358 5.33318 23.0429C5.74926 23.0946 6.18946 23.1594 6.56247 23.3593C6.7151 23.581 6.79324 23.8072 6.87497 24.0625C6.92389 24.1923 6.97324 24.322 7.02298 24.4516C7.073 24.5871 7.12294 24.7227 7.17282 24.8584C7.35925 25.3608 7.55918 25.8411 7.81247 26.3134C8.02165 26.7179 8.13554 26.9703 8.04685 27.4218C7.80629 27.8176 7.5174 28.1764 7.23142 28.54C7.13433 28.6642 7.03728 28.7884 6.94028 28.9126C6.89091 28.9758 6.84154 29.039 6.79067 29.1042C6.5488 29.4147 6.30877 29.7266 6.06931 30.039C6.00406 30.1238 6.00406 30.1238 5.93749 30.2103C5.8975 30.2626 5.85752 30.3148 5.81632 30.3686C5.78114 30.4145 5.74596 30.4604 5.70971 30.5076C5.50972 30.7846 5.50315 30.9894 5.54685 31.3281C5.64936 31.4793 5.64936 31.4793 5.78662 31.6228C5.86132 31.7046 5.86132 31.7046 5.93754 31.7881C6.17863 32.0428 6.42303 32.2936 6.67142 32.5412C6.75034 32.6202 6.75034 32.6202 6.83085 32.7008C6.94085 32.8109 7.05094 32.9208 7.16113 33.0307C7.33027 33.1994 7.49898 33.3685 7.66767 33.5377C7.77501 33.645 7.88238 33.7523 7.98978 33.8595C8.04023 33.9101 8.09069 33.9608 8.14267 34.0129C8.18938 34.0594 8.23609 34.1058 8.28422 34.1537C8.34576 34.2151 8.34576 34.2151 8.40854 34.2778C8.60073 34.4522 8.79085 34.4993 9.04965 34.494C9.44874 34.3975 9.76462 34.0798 10.0781 33.8281C10.1628 33.7614 10.2477 33.6947 10.3326 33.6282C10.4675 33.5225 10.6022 33.4166 10.7366 33.3103C11.1056 33.0187 11.4794 32.7336 11.8554 32.4511C11.9365 32.3901 11.9365 32.3901 12.0192 32.3278C12.43 32.0203 12.6835 31.8827 13.2031 31.9531C13.4659 32.0473 13.7082 32.1749 13.9551 32.3047C14.625 32.6433 15.2987 32.9143 16.014 33.1424C16.0824 33.1653 16.1508 33.1883 16.2213 33.2119C16.2816 33.2311 16.342 33.2503 16.4041 33.27C16.6277 33.3961 16.691 33.5164 16.7968 33.75C16.8406 33.9632 16.8742 34.1667 16.8997 34.382C16.9116 34.4735 16.9116 34.4735 16.9238 34.5669C16.9491 34.7616 16.9731 34.9565 16.997 35.1513C17.0134 35.2796 17.0298 35.4078 17.0463 35.536C17.0785 35.7863 17.1105 36.0365 17.1425 36.2868C17.1501 36.3461 17.1577 36.4054 17.1655 36.4665C17.1798 36.5802 17.194 36.6938 17.2078 36.8075C17.2263 36.9591 17.2458 37.1105 17.2653 37.2619C17.2758 37.3466 17.2863 37.4312 17.2972 37.5184C17.3667 37.841 17.4884 37.9879 17.7343 38.2031C17.9306 38.3012 18.0686 38.2933 18.2882 38.2963C18.3711 38.2975 18.454 38.2988 18.5395 38.3001C18.9194 38.3036 19.2992 38.3068 19.6791 38.3086C19.8794 38.3099 20.0798 38.312 20.2801 38.315C20.5688 38.3193 20.8575 38.321 21.1462 38.3221C21.2803 38.3248 21.2803 38.3248 21.417 38.3275C21.9337 38.3325 21.9337 38.3325 22.3942 38.1273C22.6331 37.8199 22.6854 37.5676 22.7343 37.1875C22.7428 37.1298 22.7513 37.0721 22.76 37.0127C22.7849 36.8344 22.8062 36.6559 22.8268 36.477C22.843 36.3437 22.8592 36.2103 22.8755 36.0769C22.9003 35.8703 22.9248 35.6635 22.949 35.4568C22.9727 35.2548 22.9974 35.0529 23.0221 34.851C23.029 34.7902 23.0358 34.7294 23.0429 34.6668C23.0946 34.2507 23.1594 33.8105 23.3593 33.4375C23.581 33.2848 23.8072 33.2067 24.0625 33.125C24.1923 33.076 24.322 33.0267 24.4516 32.977C24.5871 32.9269 24.7227 32.877 24.8584 32.8271C25.3608 32.6407 25.8411 32.4408 26.3134 32.1875C26.7179 31.9783 26.9703 31.8644 27.4218 31.9531C27.8176 32.1937 28.1764 32.4825 28.54 32.7685C28.6642 32.8656 28.7884 32.9627 28.9126 33.0597C28.9758 33.109 29.039 33.1584 29.1042 33.2093C29.4147 33.4511 29.7266 33.6912 30.039 33.9306C30.0956 33.9741 30.1521 34.0176 30.2103 34.0625C30.2626 34.1024 30.3148 34.1424 30.3686 34.1836C30.4145 34.2188 30.4604 34.254 30.5076 34.2902C30.7846 34.4902 30.9894 34.4968 31.3281 34.4531C31.4793 34.3506 31.4793 34.3506 31.6228 34.2133C31.6773 34.1635 31.7319 34.1137 31.7881 34.0624C32.0428 33.8213 32.2936 33.5769 32.5412 33.3285C32.5939 33.2759 32.6465 33.2233 32.7008 33.1691C32.8109 33.0591 32.9208 32.949 33.0307 32.8388C33.1994 32.6697 33.3685 32.501 33.5377 32.3323C33.645 32.2249 33.7523 32.1176 33.8595 32.0102C33.9354 31.9345 33.9354 31.9345 34.0129 31.8573C34.0594 31.8106 34.1058 31.7639 34.1537 31.7157C34.1947 31.6747 34.2356 31.6337 34.2778 31.5914C34.4522 31.3992 34.4993 31.2091 34.494 30.9503C34.3975 30.5512 34.0797 30.2354 33.8281 29.9218C33.7595 29.8344 33.691 29.7468 33.6227 29.6591C33.4787 29.4747 33.3342 29.2908 33.1891 29.1073C32.971 28.8314 32.7544 28.5544 32.539 28.2763C32.446 28.1565 32.446 28.1565 32.351 28.0343C32.2971 27.9611 32.2431 27.8879 32.1875 27.8125C32.1415 27.7513 32.0956 27.6902 32.0483 27.6272C31.8874 27.2801 31.8886 26.9741 32.0172 26.6207C32.1075 26.4255 32.2046 26.2353 32.3047 26.0449C32.6433 25.3749 32.9143 24.7013 33.1424 23.986C33.1653 23.9176 33.1883 23.8491 33.2119 23.7787C33.2311 23.7183 33.2503 23.658 33.27 23.5958C33.4006 23.3643 33.5031 23.3091 33.75 23.2031C34.0457 23.1423 34.3434 23.1085 34.6432 23.0743C34.8214 23.052 34.9996 23.0296 35.1777 23.0072C35.4578 22.973 35.7379 22.9394 36.0181 22.9065C36.2892 22.8743 36.5599 22.8401 36.8307 22.8058C36.9142 22.7965 36.9977 22.7873 37.0838 22.7778C37.5779 22.7138 37.8593 22.6338 38.2031 22.2656C38.3012 22.0694 38.2933 21.9314 38.2963 21.7118C38.2975 21.6288 38.2988 21.5459 38.3001 21.4605C38.3036 21.0806 38.3068 20.7007 38.3086 20.3209C38.3099 20.1205 38.312 19.9202 38.315 19.7198C38.3193 19.4311 38.321 19.1425 38.3221 18.8537C38.3248 18.7197 38.3248 18.7197 38.3275 18.5829C38.3325 18.0662 38.3325 18.0662 38.1273 17.6058C37.8199 17.3669 37.5676 17.3146 37.1875 17.2656C37.1298 17.2571 37.0721 17.2486 37.0127 17.2399C36.8344 17.2151 36.6559 17.1937 36.477 17.1731C36.3437 17.1569 36.2103 17.1407 36.0769 17.1245C35.8703 17.0997 35.6635 17.0751 35.4568 17.051C35.2548 17.0272 35.0529 17.0026 34.851 16.9778C34.7902 16.971 34.7294 16.9641 34.6668 16.9571C34.2507 16.9053 33.8105 16.8405 33.4375 16.6406C33.2848 16.419 33.2067 16.1927 33.125 15.9375C33.076 15.8076 33.0267 15.6779 32.977 15.5484C32.9269 15.4128 32.877 15.2772 32.8271 15.1416C32.6407 14.6391 32.4408 14.1588 32.1875 13.6865C31.9783 13.282 31.8644 13.0296 31.9531 12.5781C32.1937 12.1823 32.4825 11.8236 32.7685 11.4599C32.8656 11.3358 32.9627 11.2116 33.0597 11.0873C33.1337 10.9925 33.1337 10.9925 33.2093 10.8958C33.4511 10.5852 33.6912 10.2733 33.9306 9.96091C33.9741 9.90438 34.0176 9.84785 34.0625 9.78961C34.1024 9.73737 34.1424 9.68514 34.1836 9.63132C34.2188 9.58545 34.254 9.53957 34.2902 9.49231C34.4902 9.21539 34.4968 9.01051 34.4531 8.67185C34.3506 8.52066 34.3506 8.52066 34.2133 8.37718C34.1386 8.29534 34.1386 8.29534 34.0624 8.21185C33.8213 7.95714 33.5769 7.70637 33.3285 7.45877C33.2759 7.40609 33.2233 7.3534 33.1691 7.29912C33.0591 7.18907 32.949 7.07911 32.8388 6.96925C32.6697 6.80053 32.501 6.6314 32.3323 6.46222C32.2249 6.35493 32.1176 6.24766 32.0102 6.14041C31.9597 6.0898 31.9093 6.03919 31.8573 5.98704C31.8106 5.94058 31.7639 5.89412 31.7157 5.84624C31.6747 5.80528 31.6337 5.76431 31.5914 5.7221C31.3992 5.54772 31.2091 5.50063 30.9503 5.50595C30.5512 5.60248 30.2353 5.92019 29.9218 6.17185C29.8371 6.23859 29.7523 6.30522 29.6673 6.37174C29.5325 6.47747 29.3977 6.58332 29.2633 6.68963C28.8943 6.98128 28.5206 7.26632 28.1445 7.5488C28.0905 7.58951 28.0364 7.63022 27.9807 7.67217C27.5699 7.97967 27.3165 8.11727 26.7968 8.04685C26.534 7.95264 26.2918 7.825 26.0449 7.69528C25.3749 7.35667 24.7013 7.08568 23.986 6.85758C23.9176 6.83462 23.8491 6.81165 23.7787 6.788C23.7183 6.76883 23.658 6.74966 23.5958 6.72992C23.3723 6.60383 23.309 6.4835 23.2031 6.24997C23.1593 6.03671 23.1258 5.83324 23.1003 5.61795C23.0923 5.55694 23.0843 5.49592 23.0761 5.43306C23.0509 5.23834 23.0268 5.04349 23.0029 4.8486C22.9866 4.72037 22.9701 4.59214 22.9536 4.46393C22.9215 4.21368 22.8894 3.96342 22.8574 3.71314C22.8499 3.65383 22.8423 3.59453 22.8345 3.53342C22.8201 3.41979 22.806 3.30612 22.7921 3.19242C22.7737 3.04087 22.7542 2.88943 22.7347 2.73801C22.7241 2.65339 22.7136 2.56877 22.7028 2.48158C22.6332 2.15896 22.5116 2.01208 22.2656 1.79685C22.0694 1.69874 21.9314 1.70667 21.7118 1.70365C21.6288 1.7024 21.5459 1.70114 21.4605 1.69985C21.0806 1.69638 20.7007 1.69317 20.3209 1.69137C20.1205 1.69008 19.9202 1.68794 19.7198 1.68496C19.4311 1.68068 19.1425 1.67897 18.8537 1.67783C18.7644 1.67606 18.675 1.67429 18.5829 1.67246C18.0606 1.67385 17.7527 1.68366 17.4218 2.10935Z" fill="black"/>
<path d="M25.4325 13.5797C26.8414 14.8256 27.7316 16.3153 28.2031 18.125C28.232 18.2344 28.232 18.2344 28.2614 18.3459C28.717 20.4948 28.2158 22.7919 27.0331 24.6158C25.7561 26.4573 24.0282 27.6421 21.875 28.2031C21.7657 28.232 21.7657 28.232 21.6541 28.2614C19.505 28.717 17.2104 28.1986 15.3726 27.0441C15.0138 26.8079 14.6912 26.5398 14.375 26.25C14.3028 26.1841 14.2306 26.1183 14.1562 26.0504C12.9545 24.9036 12.2121 23.4686 11.7969 21.875C11.7777 21.8021 11.7584 21.7292 11.7386 21.654C11.2831 19.5052 11.7843 17.208 12.9669 15.3842C14.244 13.5426 15.9718 12.3579 18.125 11.7969C18.1979 11.7776 18.2708 11.7584 18.346 11.7386C20.8506 11.2076 23.4897 11.9612 25.4325 13.5797ZM15.5469 15.0781C15.4874 15.1302 15.4279 15.1822 15.3665 15.2359C14.2515 16.2775 13.4259 17.9228 13.3594 19.4531C13.3554 19.5313 13.3513 19.6094 13.3472 19.6899C13.2992 21.4644 13.9039 23.1182 15.0781 24.4531C15.1562 24.5424 15.1562 24.5424 15.2359 24.6335C16.2776 25.7486 17.9228 26.5741 19.4531 26.6406C19.5313 26.6446 19.6094 26.6487 19.69 26.6528C21.4645 26.7008 23.1183 26.0961 24.4531 24.9219C24.5127 24.8698 24.5722 24.8177 24.6335 24.7641C25.7486 23.7224 26.5741 22.0772 26.6406 20.5469C26.6447 20.4687 26.6487 20.3906 26.6529 20.31C26.7008 18.5356 26.0961 16.8817 24.9219 15.5469C24.8698 15.4873 24.8178 15.4278 24.7641 15.3665C23.7225 14.2514 22.0772 13.4259 20.5469 13.3594C20.4687 13.3553 20.3906 13.3513 20.3101 13.3472C18.5356 13.2992 16.8818 13.9039 15.5469 15.0781Z" fill="black"/>
</g>
<defs>
<clipPath id="clip0_208_353">
<rect width="40" height="40" fill="white"/>
</clipPath>
</defs>
</svg>
